G04 #@! TF.GenerationSoftware,KiCad,Pcbnew,(5.0.2)-1*
G04 #@! TF.CreationDate,2019-10-04T12:41:36+03:00*
G04 #@! TF.ProjectId,esp32d-diy,65737033-3264-42d6-9469-792e6b696361,1.0*
G04 #@! TF.SameCoordinates,Original*
G04 #@! TF.FileFunction,Copper,L2,Bot*
G04 #@! TF.FilePolarity,Positive*
%FSLAX46Y46*%
G04 Gerber Fmt 4.6, Leading zero omitted, Abs format (unit mm)*
G04 Created by KiCad (PCBNEW (5.0.2)-1) date 04.10.2019 12:41:36*
%MOMM*%
%LPD*%
G01*
G04 APERTURE LIST*
G04 #@! TA.AperFunction,ComponentPad*
%ADD10C,3.800000*%
G04 #@! TD*
G04 #@! TA.AperFunction,ComponentPad*
%ADD11R,1.700000X1.700000*%
G04 #@! TD*
G04 #@! TA.AperFunction,ComponentPad*
%ADD12O,1.700000X1.700000*%
G04 #@! TD*
G04 #@! TA.AperFunction,ComponentPad*
%ADD13O,1.400000X1.400000*%
G04 #@! TD*
G04 #@! TA.AperFunction,ComponentPad*
%ADD14C,1.400000*%
G04 #@! TD*
G04 #@! TA.AperFunction,ComponentPad*
%ADD15R,1.800000X1.800000*%
G04 #@! TD*
G04 #@! TA.AperFunction,ComponentPad*
%ADD16C,1.800000*%
G04 #@! TD*
G04 #@! TA.AperFunction,ComponentPad*
%ADD17C,1.600000*%
G04 #@! TD*
G04 #@! TA.AperFunction,ComponentPad*
%ADD18R,1.500000X1.500000*%
G04 #@! TD*
G04 #@! TA.AperFunction,ComponentPad*
%ADD19C,1.500000*%
G04 #@! TD*
G04 #@! TA.AperFunction,Conductor*
%ADD20C,0.100000*%
G04 #@! TD*
G04 #@! TA.AperFunction,ComponentPad*
%ADD21C,1.200000*%
G04 #@! TD*
G04 #@! TA.AperFunction,ComponentPad*
%ADD22O,1.750000X1.200000*%
G04 #@! TD*
G04 #@! TA.AperFunction,ComponentPad*
%ADD23C,0.250000*%
G04 #@! TD*
G04 #@! TA.AperFunction,ViaPad*
%ADD24C,0.800000*%
G04 #@! TD*
G04 #@! TA.AperFunction,ViaPad*
%ADD25C,1.000000*%
G04 #@! TD*
G04 #@! TA.AperFunction,ViaPad*
%ADD26C,2.000000*%
G04 #@! TD*
G04 #@! TA.AperFunction,Conductor*
%ADD27C,0.310000*%
G04 #@! TD*
G04 #@! TA.AperFunction,Conductor*
%ADD28C,1.000000*%
G04 #@! TD*
G04 #@! TA.AperFunction,Conductor*
%ADD29C,2.000000*%
G04 #@! TD*
G04 #@! TA.AperFunction,Conductor*
%ADD30C,0.508000*%
G04 #@! TD*
G04 #@! TA.AperFunction,Conductor*
%ADD31C,0.254000*%
G04 #@! TD*
G04 APERTURE END LIST*
D10*
G04 #@! TO.P,H1,1*
G04 #@! TO.N,N/C*
X101600000Y-104775000D03*
G04 #@! TD*
G04 #@! TO.P,H2,1*
G04 #@! TO.N,N/C*
X137160000Y-104775000D03*
G04 #@! TD*
G04 #@! TO.P,H3,1*
G04 #@! TO.N,N/C*
X119380000Y-143510000D03*
G04 #@! TD*
D11*
G04 #@! TO.P,J2,1*
G04 #@! TO.N,VSPI_MOSI*
X143510000Y-107315000D03*
D12*
G04 #@! TO.P,J2,2*
G04 #@! TO.N,I2C_SCL*
X146050000Y-107315000D03*
G04 #@! TO.P,J2,3*
G04 #@! TO.N,IO1*
X143510000Y-109855000D03*
G04 #@! TO.P,J2,4*
G04 #@! TO.N,IO3*
X146050000Y-109855000D03*
G04 #@! TO.P,J2,5*
G04 #@! TO.N,I2C_SDA*
X143510000Y-112395000D03*
G04 #@! TO.P,J2,6*
G04 #@! TO.N,VSPI_MISO*
X146050000Y-112395000D03*
G04 #@! TO.P,J2,7*
G04 #@! TO.N,VSPI_CLK*
X143510000Y-114935000D03*
G04 #@! TO.P,J2,8*
G04 #@! TO.N,IO5*
X146050000Y-114935000D03*
G04 #@! TO.P,J2,9*
G04 #@! TO.N,IO17*
X143510000Y-117475000D03*
G04 #@! TO.P,J2,10*
G04 #@! TO.N,IO16*
X146050000Y-117475000D03*
G04 #@! TO.P,J2,11*
G04 #@! TO.N,IO4*
X143510000Y-120015000D03*
G04 #@! TO.P,J2,12*
G04 #@! TO.N,IO0*
X146050000Y-120015000D03*
G04 #@! TO.P,J2,13*
G04 #@! TO.N,+3.3V*
X143510000Y-122555000D03*
G04 #@! TO.P,J2,14*
G04 #@! TO.N,IO2*
X146050000Y-122555000D03*
G04 #@! TO.P,J2,15*
G04 #@! TO.N,GND*
X143510000Y-125095000D03*
G04 #@! TO.P,J2,16*
G04 #@! TO.N,EN*
X146050000Y-125095000D03*
G04 #@! TD*
D11*
G04 #@! TO.P,J1,1*
G04 #@! TO.N,I39*
X92710000Y-107315000D03*
D12*
G04 #@! TO.P,J1,2*
G04 #@! TO.N,I36*
X95250000Y-107315000D03*
G04 #@! TO.P,J1,3*
G04 #@! TO.N,IO33*
X92710000Y-109855000D03*
G04 #@! TO.P,J1,4*
G04 #@! TO.N,I34*
X95250000Y-109855000D03*
G04 #@! TO.P,J1,5*
G04 #@! TO.N,IO26*
X92710000Y-112395000D03*
G04 #@! TO.P,J1,6*
G04 #@! TO.N,IO32*
X95250000Y-112395000D03*
G04 #@! TO.P,J1,7*
G04 #@! TO.N,HSPI_CLK*
X92710000Y-114935000D03*
G04 #@! TO.P,J1,8*
G04 #@! TO.N,IO25*
X95250000Y-114935000D03*
G04 #@! TO.P,J1,9*
G04 #@! TO.N,HSPI_MOSI*
X92710000Y-117475000D03*
G04 #@! TO.P,J1,10*
G04 #@! TO.N,IO27*
X95250000Y-117475000D03*
G04 #@! TO.P,J1,11*
G04 #@! TO.N,IO15*
X92710000Y-120015000D03*
G04 #@! TO.P,J1,12*
G04 #@! TO.N,VBAT*
X95250000Y-120015000D03*
G04 #@! TO.P,J1,13*
G04 #@! TO.N,HSPI_MISO*
X92710000Y-122555000D03*
G04 #@! TO.P,J1,14*
G04 #@! TO.N,+3.3V*
X95250000Y-122555000D03*
G04 #@! TO.P,J1,15*
G04 #@! TO.N,EXT_5V*
X92710000Y-125095000D03*
G04 #@! TO.P,J1,16*
G04 #@! TO.N,GND*
X95250000Y-125095000D03*
G04 #@! TD*
D13*
G04 #@! TO.P,R3,2*
G04 #@! TO.N,+3.3V*
X126873000Y-112268000D03*
D14*
G04 #@! TO.P,R3,1*
G04 #@! TO.N,I2C_SDA*
X134493000Y-112268000D03*
G04 #@! TD*
G04 #@! TO.P,R4,1*
G04 #@! TO.N,I2C_SCL*
X134493000Y-108585000D03*
D13*
G04 #@! TO.P,R4,2*
G04 #@! TO.N,+3.3V*
X126873000Y-108585000D03*
G04 #@! TD*
D15*
G04 #@! TO.P,D2,1*
G04 #@! TO.N,GND*
X135798560Y-97835720D03*
D16*
G04 #@! TO.P,D2,2*
G04 #@! TO.N,Net-(D2-Pad2)*
X138338560Y-97835720D03*
G04 #@! TD*
D14*
G04 #@! TO.P,R2,1*
G04 #@! TO.N,IO2*
X130238500Y-101282500D03*
D13*
G04 #@! TO.P,R2,2*
G04 #@! TO.N,Net-(D2-Pad2)*
X137858500Y-101282500D03*
G04 #@! TD*
D17*
G04 #@! TO.P,C6,1*
G04 #@! TO.N,GND*
X130873500Y-104330500D03*
G04 #@! TO.P,C6,2*
G04 #@! TO.N,EN*
X133373500Y-104330500D03*
G04 #@! TD*
D15*
G04 #@! TO.P,D6,1*
G04 #@! TO.N,Net-(D6-Pad1)*
X158813500Y-128016000D03*
D16*
G04 #@! TO.P,D6,2*
G04 #@! TO.N,Net-(D6-Pad2)*
X161353500Y-128016000D03*
G04 #@! TD*
D14*
G04 #@! TO.P,R10,1*
G04 #@! TO.N,Net-(D6-Pad2)*
X148889720Y-130520440D03*
D13*
G04 #@! TO.P,R10,2*
G04 #@! TO.N,VBUS*
X156509720Y-130520440D03*
G04 #@! TD*
D14*
G04 #@! TO.P,R1,1*
G04 #@! TO.N,+3.3V*
X126873000Y-126619000D03*
D13*
G04 #@! TO.P,R1,2*
G04 #@! TO.N,EN*
X119253000Y-126619000D03*
G04 #@! TD*
D17*
G04 #@! TO.P,C1,1*
G04 #@! TO.N,+3.3V*
X100647500Y-108648500D03*
G04 #@! TO.P,C1,2*
G04 #@! TO.N,GND*
X98147500Y-108648500D03*
G04 #@! TD*
G04 #@! TO.P,C2,1*
G04 #@! TO.N,+3.3V*
X98140520Y-112186720D03*
G04 #@! TO.P,C2,2*
G04 #@! TO.N,GND*
X100640520Y-112186720D03*
G04 #@! TD*
G04 #@! TO.P,C3,2*
G04 #@! TO.N,GND*
X120060080Y-123916440D03*
G04 #@! TO.P,C3,1*
G04 #@! TO.N,EN*
X122560080Y-123916440D03*
G04 #@! TD*
D13*
G04 #@! TO.P,R12,2*
G04 #@! TO.N,I35*
X102997000Y-111188500D03*
D14*
G04 #@! TO.P,R12,1*
G04 #@! TO.N,VBAT*
X102997000Y-118808500D03*
G04 #@! TD*
G04 #@! TO.P,R13,1*
G04 #@! TO.N,I35*
X98107500Y-117475000D03*
D13*
G04 #@! TO.P,R13,2*
G04 #@! TO.N,GND*
X98107500Y-125095000D03*
G04 #@! TD*
D14*
G04 #@! TO.P,R8,1*
G04 #@! TO.N,DTR*
X103438960Y-139689840D03*
D13*
G04 #@! TO.P,R8,2*
G04 #@! TO.N,Net-(Q1-Pad1)*
X103438960Y-132069840D03*
G04 #@! TD*
G04 #@! TO.P,R9,2*
G04 #@! TO.N,Net-(Q2-Pad1)*
X105643680Y-139689840D03*
D14*
G04 #@! TO.P,R9,1*
G04 #@! TO.N,RTS*
X105643680Y-132069840D03*
G04 #@! TD*
D18*
G04 #@! TO.P,Q1,1*
G04 #@! TO.N,Net-(Q1-Pad1)*
X103657400Y-128910080D03*
D19*
G04 #@! TO.P,Q1,3*
G04 #@! TO.N,EN*
X108737400Y-128910080D03*
G04 #@! TO.P,Q1,2*
G04 #@! TO.N,RTS*
X106197400Y-128910080D03*
G04 #@! TD*
G04 #@! TO.P,Q2,2*
G04 #@! TO.N,IO0*
X113395760Y-130891280D03*
G04 #@! TO.P,Q2,3*
G04 #@! TO.N,DTR*
X115935760Y-130891280D03*
D18*
G04 #@! TO.P,Q2,1*
G04 #@! TO.N,Net-(Q2-Pad1)*
X110855760Y-130891280D03*
G04 #@! TD*
D17*
G04 #@! TO.P,C4,1*
G04 #@! TO.N,EXT_5V*
X131221480Y-128285240D03*
G04 #@! TO.P,C4,2*
G04 #@! TO.N,GND*
X131221480Y-125785240D03*
G04 #@! TD*
G04 #@! TO.P,C5,2*
G04 #@! TO.N,GND*
X138395080Y-133609080D03*
G04 #@! TO.P,C5,1*
G04 #@! TO.N,+3.3V*
X135895080Y-133609080D03*
G04 #@! TD*
D20*
G04 #@! TO.N,GND*
G04 #@! TO.C,J4*
G36*
X156839185Y-136291204D02*
X156863453Y-136294804D01*
X156887252Y-136300765D01*
X156910351Y-136309030D01*
X156932530Y-136319520D01*
X156953573Y-136332132D01*
X156973279Y-136346747D01*
X156991457Y-136363223D01*
X157007933Y-136381401D01*
X157022548Y-136401107D01*
X157035160Y-136422150D01*
X157045650Y-136444329D01*
X157053915Y-136467428D01*
X157059876Y-136491227D01*
X157063476Y-136515495D01*
X157064680Y-136539999D01*
X157064680Y-137240001D01*
X157063476Y-137264505D01*
X157059876Y-137288773D01*
X157053915Y-137312572D01*
X157045650Y-137335671D01*
X157035160Y-137357850D01*
X157022548Y-137378893D01*
X157007933Y-137398599D01*
X156991457Y-137416777D01*
X156973279Y-137433253D01*
X156953573Y-137447868D01*
X156932530Y-137460480D01*
X156910351Y-137470970D01*
X156887252Y-137479235D01*
X156863453Y-137485196D01*
X156839185Y-137488796D01*
X156814681Y-137490000D01*
X155564679Y-137490000D01*
X155540175Y-137488796D01*
X155515907Y-137485196D01*
X155492108Y-137479235D01*
X155469009Y-137470970D01*
X155446830Y-137460480D01*
X155425787Y-137447868D01*
X155406081Y-137433253D01*
X155387903Y-137416777D01*
X155371427Y-137398599D01*
X155356812Y-137378893D01*
X155344200Y-137357850D01*
X155333710Y-137335671D01*
X155325445Y-137312572D01*
X155319484Y-137288773D01*
X155315884Y-137264505D01*
X155314680Y-137240001D01*
X155314680Y-136539999D01*
X155315884Y-136515495D01*
X155319484Y-136491227D01*
X155325445Y-136467428D01*
X155333710Y-136444329D01*
X155344200Y-136422150D01*
X155356812Y-136401107D01*
X155371427Y-136381401D01*
X155387903Y-136363223D01*
X155406081Y-136346747D01*
X155425787Y-136332132D01*
X155446830Y-136319520D01*
X155469009Y-136309030D01*
X155492108Y-136300765D01*
X155515907Y-136294804D01*
X155540175Y-136291204D01*
X155564679Y-136290000D01*
X156814681Y-136290000D01*
X156839185Y-136291204D01*
X156839185Y-136291204D01*
G37*
D21*
G04 #@! TD*
G04 #@! TO.P,J4,1*
G04 #@! TO.N,GND*
X156189680Y-136890000D03*
D22*
G04 #@! TO.P,J4,2*
G04 #@! TO.N,VBAT*
X156189680Y-134890000D03*
G04 #@! TD*
D17*
G04 #@! TO.P,C9,1*
G04 #@! TO.N,VBUS*
X155905200Y-143652240D03*
G04 #@! TO.P,C9,2*
G04 #@! TO.N,GND*
X155905200Y-141152240D03*
G04 #@! TD*
D14*
G04 #@! TO.P,R11,1*
G04 #@! TO.N,GND*
X148915120Y-128016000D03*
D13*
G04 #@! TO.P,R11,2*
G04 #@! TO.N,Net-(R11-Pad2)*
X156535120Y-128016000D03*
G04 #@! TD*
D23*
G04 #@! TO.P,SW1,6*
G04 #@! TO.N,N/C*
X129685760Y-96841160D03*
G04 #@! TO.P,SW1,7*
X133935760Y-96841160D03*
G04 #@! TD*
D10*
G04 #@! TO.P,H4,1*
G04 #@! TO.N,GND*
X113228120Y-110525560D03*
G04 #@! TD*
D24*
G04 #@! TO.N,GND*
X130759200Y-97693480D03*
X99298760Y-128264920D03*
X108585000Y-120523000D03*
X107777280Y-107553760D03*
X116840000Y-114173000D03*
X120142000Y-105918000D03*
X113553240Y-104612440D03*
G04 #@! TO.N,EN*
X107863640Y-105537000D03*
G04 #@! TO.N,HSPI_MISO*
X100094669Y-118508509D03*
G04 #@! TO.N,IO0*
X122809000Y-119507000D03*
G04 #@! TO.N,IO3*
X120269000Y-108077000D03*
X109951520Y-135579490D03*
G04 #@! TO.N,IO1*
X122800000Y-106807000D03*
X106337100Y-135610600D03*
D25*
G04 #@! TO.N,EXT_5V*
X91643200Y-143497300D03*
D26*
X91643200Y-136550400D03*
D24*
X146923000Y-142433000D03*
D26*
X129540000Y-131318000D03*
D25*
G04 #@! TO.N,+3.3V*
X86588600Y-143497300D03*
D24*
X105791000Y-104267000D03*
X127000000Y-105537000D03*
D26*
X123444000Y-133985000D03*
X94767400Y-133972300D03*
D25*
G04 #@! TO.N,VBUS*
X94170500Y-143510000D03*
D24*
X146939000Y-144399000D03*
G04 #@! TO.N,VBAT*
X143667480Y-138104880D03*
D26*
X118785640Y-129306320D03*
G04 #@! TD*
D27*
G04 #@! TO.N,EN*
X121955560Y-123916440D02*
X122560080Y-123916440D01*
X119253000Y-126619000D02*
X121955560Y-123916440D01*
X108966000Y-106639360D02*
X107863640Y-105537000D01*
X108966000Y-114843560D02*
X108966000Y-106639360D01*
X119253000Y-126619000D02*
X119253000Y-125130560D01*
X119253000Y-125130560D02*
X108966000Y-114843560D01*
G04 #@! TO.N,HSPI_MISO*
X91504999Y-116896599D02*
X92258599Y-116142999D01*
X91504999Y-121349999D02*
X91504999Y-116896599D01*
X92710000Y-122555000D02*
X91504999Y-121349999D01*
X93909599Y-116142999D02*
X94361000Y-116142999D01*
X95701401Y-116142999D02*
X93535500Y-116142999D01*
X96455001Y-116896599D02*
X95701401Y-116142999D01*
X96455001Y-117664001D02*
X96455001Y-116896599D01*
X97321001Y-118530001D02*
X96455001Y-117664001D01*
X99528984Y-118508509D02*
X99507492Y-118530001D01*
X100094669Y-118508509D02*
X99528984Y-118508509D01*
X99507492Y-118530001D02*
X97321001Y-118530001D01*
X93535500Y-116142999D02*
X94361000Y-116142999D01*
X92258599Y-116142999D02*
X93535500Y-116142999D01*
G04 #@! TO.N,IO0*
X124277120Y-120975120D02*
X122809000Y-119507000D01*
X124277120Y-129738120D02*
X124277120Y-120975120D01*
X121889520Y-132125720D02*
X124277120Y-129738120D01*
X113395760Y-130891280D02*
X114630200Y-132125720D01*
X114630200Y-132125720D02*
X121889520Y-132125720D01*
G04 #@! TO.N,IO3*
X125031500Y-135572500D02*
X110121700Y-135572500D01*
X119888000Y-108458000D02*
X119888000Y-109982000D01*
X120269000Y-108077000D02*
X119888000Y-108458000D01*
X127571500Y-133032500D02*
X125031500Y-135572500D01*
X127571500Y-130302000D02*
X127571500Y-133032500D01*
X119888000Y-109982000D02*
X123825000Y-113919000D01*
X123825000Y-113919000D02*
X123825000Y-117454680D01*
X123825000Y-117454680D02*
X124909580Y-118539260D01*
X124909580Y-127640080D02*
X127571500Y-130302000D01*
X124909580Y-118539260D02*
X124909580Y-127640080D01*
G04 #@! TO.N,IO1*
X122800000Y-107567000D02*
X124206000Y-108973000D01*
X122800000Y-106807000D02*
X122800000Y-107567000D01*
X124460000Y-109227000D02*
X124206000Y-108973000D01*
X125222000Y-136334500D02*
X128143000Y-133413500D01*
X128143000Y-133413500D02*
X128143000Y-130111500D01*
X107461585Y-136334500D02*
X109601000Y-136334500D01*
X109410500Y-136334500D02*
X109601000Y-136334500D01*
X107461585Y-136334500D02*
X107061000Y-136334500D01*
X124460000Y-115869720D02*
X124460000Y-117027960D01*
X124460000Y-115869720D02*
X124460000Y-109227000D01*
X125465840Y-118033800D02*
X125465840Y-127434340D01*
X124460000Y-117027960D02*
X125465840Y-118033800D01*
X128143000Y-130111500D02*
X125465840Y-127434340D01*
X107061000Y-136334500D02*
X106337100Y-135610600D01*
X117063520Y-136334500D02*
X107061000Y-136334500D01*
X117063520Y-136334500D02*
X125222000Y-136334500D01*
X109601000Y-136334500D02*
X117063520Y-136334500D01*
D28*
G04 #@! TO.N,EXT_5V*
X146873000Y-142433000D02*
X146923000Y-142433000D01*
X129540000Y-134239000D02*
X132969000Y-137668000D01*
D29*
X126047500Y-137731500D02*
X129540000Y-134239000D01*
X121920000Y-137731500D02*
X126047500Y-137731500D01*
X108521500Y-137731500D02*
X121920000Y-137731500D01*
X121920000Y-137731500D02*
X123126500Y-137731500D01*
X129540000Y-131318000D02*
X129540000Y-134239000D01*
X92710000Y-125095000D02*
X91643200Y-126161800D01*
X91643200Y-126161800D02*
X91643200Y-136550400D01*
X92824300Y-137731500D02*
X91643200Y-136550400D01*
X108521500Y-137731500D02*
X92824300Y-137731500D01*
X131221480Y-129636520D02*
X129540000Y-131318000D01*
X131221480Y-128285240D02*
X131221480Y-129636520D01*
D28*
X137668000Y-137668000D02*
X139278360Y-137668000D01*
X137668000Y-137668000D02*
X132969000Y-137668000D01*
X144043360Y-142433000D02*
X146923000Y-142433000D01*
X139278360Y-137668000D02*
X144043360Y-142433000D01*
D29*
G04 #@! TO.N,+3.3V*
X123444000Y-133985000D02*
X123444000Y-133985000D01*
X126873000Y-109474000D02*
X127000000Y-109347000D01*
X126873000Y-126619000D02*
X126873000Y-109474000D01*
X127000000Y-109347000D02*
X127000000Y-105537000D01*
X127000000Y-105537000D02*
X124841000Y-103378000D01*
X105791000Y-104267000D02*
X107569000Y-102489000D01*
X123952000Y-102489000D02*
X127000000Y-105537000D01*
X107569000Y-102489000D02*
X123952000Y-102489000D01*
X113347718Y-133985000D02*
X113347718Y-133985000D01*
X142307919Y-122555000D02*
X143510000Y-122555000D01*
X135890000Y-128972919D02*
X142307919Y-122555000D01*
X135890000Y-133604000D02*
X135890000Y-128972919D01*
X113347718Y-133985000D02*
X114236500Y-133985000D01*
X94767400Y-133972300D02*
X94780100Y-133985000D01*
X101508560Y-125684058D02*
X101508560Y-133975285D01*
X98379502Y-122555000D02*
X101508560Y-125684058D01*
X95250000Y-122555000D02*
X98379502Y-122555000D01*
X101508560Y-133975285D02*
X94767400Y-133972300D01*
X101512764Y-133979489D02*
X101508560Y-133975285D01*
X110719521Y-133979489D02*
X101512764Y-133979489D01*
X110725032Y-133985000D02*
X110719521Y-133979489D01*
X123444000Y-133985000D02*
X110725032Y-133985000D01*
X101778870Y-108648500D02*
X100647500Y-108648500D01*
X102314502Y-108648500D02*
X101778870Y-108648500D01*
X105791000Y-105172002D02*
X102314502Y-108648500D01*
X105791000Y-104267000D02*
X105791000Y-105172002D01*
X98140520Y-111726718D02*
X98140520Y-112186720D01*
X100647500Y-109219738D02*
X98140520Y-111726718D01*
X100647500Y-108648500D02*
X100647500Y-109219738D01*
G04 #@! TO.N,VBUS*
X138620500Y-140144500D02*
X142875000Y-144399000D01*
X142875000Y-144399000D02*
X146939000Y-144399000D01*
X113235740Y-143510000D02*
X116601240Y-140144500D01*
X94170500Y-143510000D02*
X113235740Y-143510000D01*
X116601240Y-140144500D02*
X138620500Y-140144500D01*
D30*
X155158440Y-144399000D02*
X155905200Y-143652240D01*
X146939000Y-144399000D02*
X155158440Y-144399000D01*
X155905200Y-143652240D02*
X158892240Y-140665200D01*
X158892240Y-132902960D02*
X158892240Y-133492240D01*
X156509720Y-130520440D02*
X158892240Y-132902960D01*
X158892240Y-140665200D02*
X158892240Y-133492240D01*
D27*
G04 #@! TO.N,RTS*
X106197400Y-131516120D02*
X105643680Y-132069840D01*
X106197400Y-128910080D02*
X106197400Y-131516120D01*
G04 #@! TO.N,Net-(Q1-Pad1)*
X103438960Y-129128520D02*
X103657400Y-128910080D01*
X103438960Y-132069840D02*
X103438960Y-129128520D01*
D30*
G04 #@! TO.N,Net-(D6-Pad2)*
X149589719Y-129820441D02*
X149797999Y-129820441D01*
X148889720Y-130520440D02*
X149589719Y-129820441D01*
X149797999Y-129820441D02*
X152989280Y-126629160D01*
X159966660Y-126629160D02*
X161353500Y-128016000D01*
X152989280Y-126629160D02*
X159966660Y-126629160D01*
D28*
G04 #@! TO.N,VBAT*
X95250000Y-120015000D02*
X100584000Y-120015000D01*
D29*
X96452081Y-120015000D02*
X96545591Y-120108510D01*
X96545591Y-120108510D02*
X101696990Y-120108510D01*
X102297001Y-119508499D02*
X102997000Y-118808500D01*
X101696990Y-120108510D02*
X102297001Y-119508499D01*
X95250000Y-120015000D02*
X96452081Y-120015000D01*
X112770920Y-123291600D02*
X118785640Y-129306320D01*
X105765600Y-123291600D02*
X112770920Y-123291600D01*
X96545591Y-120108510D02*
X102582510Y-120108510D01*
X102582510Y-120108510D02*
X105765600Y-123291600D01*
D27*
G04 #@! TO.N,I35*
X98807499Y-116775001D02*
X98107500Y-117475000D01*
X102297001Y-113285499D02*
X98807499Y-116775001D01*
X102297001Y-111888499D02*
X102297001Y-113285499D01*
X102997000Y-111188500D02*
X102297001Y-111888499D01*
G04 #@! TD*
D31*
G04 #@! TO.N,GND*
G36*
X139244001Y-96929554D02*
X139064188Y-96749741D01*
X138593367Y-96554720D01*
X138083753Y-96554720D01*
X137612932Y-96749741D01*
X137252581Y-97110092D01*
X137057560Y-97580913D01*
X137057560Y-98090527D01*
X137252581Y-98561348D01*
X137612932Y-98921699D01*
X138083753Y-99116720D01*
X138593367Y-99116720D01*
X139064188Y-98921699D01*
X139244001Y-98741886D01*
X139244000Y-103845682D01*
X139093738Y-103482918D01*
X138452082Y-102841262D01*
X137613719Y-102494000D01*
X136706281Y-102494000D01*
X135867918Y-102841262D01*
X135226262Y-103482918D01*
X134879000Y-104321281D01*
X134879000Y-105228719D01*
X135226262Y-106067082D01*
X135867918Y-106708738D01*
X136706281Y-107056000D01*
X137613719Y-107056000D01*
X138452082Y-106708738D01*
X138695820Y-106465000D01*
X142271536Y-106465000D01*
X142271536Y-108165000D01*
X142301106Y-108313659D01*
X142385314Y-108439686D01*
X142511341Y-108523894D01*
X142660000Y-108553464D01*
X144360000Y-108553464D01*
X144508659Y-108523894D01*
X144634686Y-108439686D01*
X144718894Y-108313659D01*
X144748464Y-108165000D01*
X144748464Y-107315000D01*
X144794884Y-107315000D01*
X144890424Y-107795312D01*
X145162499Y-108202501D01*
X145569688Y-108474576D01*
X145928761Y-108546000D01*
X146171239Y-108546000D01*
X146530312Y-108474576D01*
X146937501Y-108202501D01*
X147209576Y-107795312D01*
X147305116Y-107315000D01*
X147209576Y-106834688D01*
X146937501Y-106427499D01*
X146530312Y-106155424D01*
X146171239Y-106084000D01*
X145928761Y-106084000D01*
X145569688Y-106155424D01*
X145162499Y-106427499D01*
X144890424Y-106834688D01*
X144794884Y-107315000D01*
X144748464Y-107315000D01*
X144748464Y-106465000D01*
X144718894Y-106316341D01*
X144634686Y-106190314D01*
X144508659Y-106106106D01*
X144360000Y-106076536D01*
X142660000Y-106076536D01*
X142511341Y-106106106D01*
X142385314Y-106190314D01*
X142301106Y-106316341D01*
X142271536Y-106465000D01*
X138695820Y-106465000D01*
X139093738Y-106067082D01*
X139441000Y-105228719D01*
X139441000Y-105150367D01*
X139522078Y-105204542D01*
X139700000Y-105239933D01*
X139744909Y-105231000D01*
X148134001Y-105231000D01*
X148134000Y-125685091D01*
X148125067Y-125730000D01*
X148160458Y-125907922D01*
X148239213Y-126025787D01*
X148261243Y-126058757D01*
X148412078Y-126159542D01*
X148590000Y-126194933D01*
X148634909Y-126186000D01*
X152521683Y-126186000D01*
X152496046Y-126224368D01*
X149536910Y-129183506D01*
X149527181Y-129185441D01*
X149527178Y-129185441D01*
X149341954Y-129222284D01*
X149131910Y-129362632D01*
X149096483Y-129415652D01*
X149072695Y-129439440D01*
X148674696Y-129439440D01*
X148277383Y-129604012D01*
X147973292Y-129908103D01*
X147808720Y-130305416D01*
X147808720Y-130735464D01*
X147973292Y-131132777D01*
X148277383Y-131436868D01*
X148674696Y-131601440D01*
X149104744Y-131601440D01*
X149502057Y-131436868D01*
X149806148Y-131132777D01*
X149970720Y-130735464D01*
X149970720Y-130433525D01*
X150045764Y-130418598D01*
X150255808Y-130278250D01*
X150291237Y-130225227D01*
X153252306Y-127264160D01*
X155737375Y-127264160D01*
X155516840Y-127594215D01*
X155432942Y-128016000D01*
X155516840Y-128437785D01*
X155755762Y-128795358D01*
X156113335Y-129034280D01*
X156428651Y-129097000D01*
X156641589Y-129097000D01*
X156956905Y-129034280D01*
X157314478Y-128795358D01*
X157525036Y-128480235D01*
X157525036Y-128916000D01*
X157554606Y-129064659D01*
X157638814Y-129190686D01*
X157764841Y-129274894D01*
X157913500Y-129304464D01*
X159713500Y-129304464D01*
X159862159Y-129274894D01*
X159988186Y-129190686D01*
X160072394Y-129064659D01*
X160101964Y-128916000D01*
X160101964Y-128341939D01*
X160267521Y-128741628D01*
X160627872Y-129101979D01*
X161098693Y-129297000D01*
X161608307Y-129297000D01*
X162079128Y-129101979D01*
X162104001Y-129077106D01*
X162104000Y-145594000D01*
X147636289Y-145594000D01*
X147934645Y-145394645D01*
X148175620Y-145034000D01*
X155095903Y-145034000D01*
X155158440Y-145046439D01*
X155220977Y-145034000D01*
X155220981Y-145034000D01*
X155406205Y-144997157D01*
X155616249Y-144856809D01*
X155640297Y-144820819D01*
X155670285Y-144833240D01*
X156140115Y-144833240D01*
X156574183Y-144653443D01*
X156906403Y-144321223D01*
X157086200Y-143887155D01*
X157086200Y-143417325D01*
X157072123Y-143383341D01*
X159297029Y-141158436D01*
X159350049Y-141123009D01*
X159490397Y-140912965D01*
X159527240Y-140727741D01*
X159527240Y-140727736D01*
X159539679Y-140665201D01*
X159527240Y-140602665D01*
X159527240Y-132965496D01*
X159539679Y-132902959D01*
X159527240Y-132840420D01*
X159527240Y-132840419D01*
X159490397Y-132655195D01*
X159350049Y-132445151D01*
X159297029Y-132409724D01*
X157578027Y-130690723D01*
X157611898Y-130520440D01*
X157528000Y-130098655D01*
X157289078Y-129741082D01*
X156931505Y-129502160D01*
X156616189Y-129439440D01*
X156403251Y-129439440D01*
X156087935Y-129502160D01*
X155730362Y-129741082D01*
X155491440Y-130098655D01*
X155407542Y-130520440D01*
X155491440Y-130942225D01*
X155730362Y-131299798D01*
X156087935Y-131538720D01*
X156403251Y-131601440D01*
X156616189Y-131601440D01*
X156680002Y-131588747D01*
X158257240Y-133165985D01*
X158257240Y-133554781D01*
X158257241Y-133554786D01*
X158257240Y-140402175D01*
X156174099Y-142485317D01*
X156140115Y-142471240D01*
X155670285Y-142471240D01*
X155236217Y-142651037D01*
X154903997Y-142983257D01*
X154724200Y-143417325D01*
X154724200Y-143764000D01*
X148175620Y-143764000D01*
X147934645Y-143403355D01*
X147495581Y-143109982D01*
X147558165Y-143068165D01*
X147752883Y-142776749D01*
X147821259Y-142433000D01*
X147752883Y-142089251D01*
X147558165Y-141797835D01*
X147266749Y-141603117D01*
X147009767Y-141552000D01*
X144408282Y-141552000D01*
X140805811Y-137949529D01*
X142886480Y-137949529D01*
X142886480Y-138260231D01*
X143005380Y-138547281D01*
X143225079Y-138766980D01*
X143512129Y-138885880D01*
X143822831Y-138885880D01*
X144109881Y-138766980D01*
X144329580Y-138547281D01*
X144448480Y-138260231D01*
X144448480Y-137949529D01*
X144329580Y-137662479D01*
X144109881Y-137442780D01*
X143822831Y-137323880D01*
X143512129Y-137323880D01*
X143225079Y-137442780D01*
X143005380Y-137662479D01*
X142886480Y-137949529D01*
X140805811Y-137949529D01*
X139962677Y-137106396D01*
X139913525Y-137032835D01*
X139622109Y-136838117D01*
X139365127Y-136787000D01*
X139365123Y-136787000D01*
X139278360Y-136769742D01*
X139191597Y-136787000D01*
X133333922Y-136787000D01*
X130921154Y-134374233D01*
X130948054Y-134239000D01*
X130921000Y-134102991D01*
X130921000Y-131890028D01*
X132101819Y-130709210D01*
X132217125Y-130632165D01*
X132522353Y-130175359D01*
X132602480Y-129772534D01*
X132602480Y-129772530D01*
X132629534Y-129636520D01*
X132602480Y-129500511D01*
X132602480Y-128972919D01*
X134481946Y-128972919D01*
X134509001Y-129108933D01*
X134509000Y-133740013D01*
X134589127Y-134142838D01*
X134894355Y-134599644D01*
X135351161Y-134904873D01*
X135890000Y-135012055D01*
X136428838Y-134904873D01*
X136451097Y-134890000D01*
X154914462Y-134890000D01*
X154990599Y-135272767D01*
X155207419Y-135597261D01*
X155531913Y-135814081D01*
X155818064Y-135871000D01*
X156561296Y-135871000D01*
X156847447Y-135814081D01*
X157171941Y-135597261D01*
X157388761Y-135272767D01*
X157464898Y-134890000D01*
X157388761Y-134507233D01*
X157171941Y-134182739D01*
X156847447Y-133965919D01*
X156561296Y-133909000D01*
X155818064Y-133909000D01*
X155531913Y-133965919D01*
X155207419Y-134182739D01*
X154990599Y-134507233D01*
X154914462Y-134890000D01*
X136451097Y-134890000D01*
X136885644Y-134599645D01*
X137190873Y-134142839D01*
X137271000Y-133740014D01*
X137271000Y-129544947D01*
X141720947Y-125095000D01*
X144794884Y-125095000D01*
X144890424Y-125575312D01*
X145162499Y-125982501D01*
X145569688Y-126254576D01*
X145928761Y-126326000D01*
X146171239Y-126326000D01*
X146530312Y-126254576D01*
X146937501Y-125982501D01*
X147209576Y-125575312D01*
X147305116Y-125095000D01*
X147209576Y-124614688D01*
X146937501Y-124207499D01*
X146530312Y-123935424D01*
X146171239Y-123864000D01*
X145928761Y-123864000D01*
X145569688Y-123935424D01*
X145162499Y-124207499D01*
X144890424Y-124614688D01*
X144794884Y-125095000D01*
X141720947Y-125095000D01*
X142879948Y-123936000D01*
X143646014Y-123936000D01*
X144048839Y-123855873D01*
X144505645Y-123550645D01*
X144810873Y-123093839D01*
X144856469Y-122864611D01*
X144890424Y-123035312D01*
X145162499Y-123442501D01*
X145569688Y-123714576D01*
X145928761Y-123786000D01*
X146171239Y-123786000D01*
X146530312Y-123714576D01*
X146937501Y-123442501D01*
X147209576Y-123035312D01*
X147305116Y-122555000D01*
X147209576Y-122074688D01*
X146937501Y-121667499D01*
X146530312Y-121395424D01*
X146171239Y-121324000D01*
X145928761Y-121324000D01*
X145569688Y-121395424D01*
X145162499Y-121667499D01*
X144890424Y-122074688D01*
X144856469Y-122245389D01*
X144810873Y-122016161D01*
X144505645Y-121559355D01*
X144048839Y-121254127D01*
X143819611Y-121208531D01*
X143990312Y-121174576D01*
X144397501Y-120902501D01*
X144669576Y-120495312D01*
X144765116Y-120015000D01*
X144794884Y-120015000D01*
X144890424Y-120495312D01*
X145162499Y-120902501D01*
X145569688Y-121174576D01*
X145928761Y-121246000D01*
X146171239Y-121246000D01*
X146530312Y-121174576D01*
X146937501Y-120902501D01*
X147209576Y-120495312D01*
X147305116Y-120015000D01*
X147209576Y-119534688D01*
X146937501Y-119127499D01*
X146530312Y-118855424D01*
X146171239Y-118784000D01*
X145928761Y-118784000D01*
X145569688Y-118855424D01*
X145162499Y-119127499D01*
X144890424Y-119534688D01*
X144794884Y-120015000D01*
X144765116Y-120015000D01*
X144669576Y-119534688D01*
X144397501Y-119127499D01*
X143990312Y-118855424D01*
X143631239Y-118784000D01*
X143388761Y-118784000D01*
X143029688Y-118855424D01*
X142622499Y-119127499D01*
X142350424Y-119534688D01*
X142254884Y-120015000D01*
X142350424Y-120495312D01*
X142622499Y-120902501D01*
X143028826Y-121174000D01*
X142443928Y-121174000D01*
X142307918Y-121146946D01*
X142171909Y-121174000D01*
X142171905Y-121174000D01*
X141769080Y-121254127D01*
X141312274Y-121559355D01*
X141235229Y-121674661D01*
X135009662Y-127900229D01*
X134894356Y-127977274D01*
X134817311Y-128092580D01*
X134817310Y-128092581D01*
X134589128Y-128434080D01*
X134481946Y-128972919D01*
X132602480Y-128972919D01*
X132602480Y-128149226D01*
X132522353Y-127746401D01*
X132217124Y-127289595D01*
X131760318Y-126984367D01*
X131221480Y-126877185D01*
X130682641Y-126984367D01*
X130225835Y-127289596D01*
X129920607Y-127746402D01*
X129840480Y-128149227D01*
X129840480Y-129064491D01*
X128757727Y-130147245D01*
X128679000Y-130225972D01*
X128679000Y-130164285D01*
X128689500Y-130111500D01*
X128676393Y-130045609D01*
X128647900Y-129902364D01*
X128529434Y-129725066D01*
X128484684Y-129695166D01*
X126802562Y-128013044D01*
X126873000Y-128027055D01*
X127411838Y-127919873D01*
X127868644Y-127614645D01*
X128173873Y-127157839D01*
X128254000Y-126755014D01*
X128254000Y-117475000D01*
X142254884Y-117475000D01*
X142350424Y-117955312D01*
X142622499Y-118362501D01*
X143029688Y-118634576D01*
X143388761Y-118706000D01*
X143631239Y-118706000D01*
X143990312Y-118634576D01*
X144397501Y-118362501D01*
X144669576Y-117955312D01*
X144765116Y-117475000D01*
X144794884Y-117475000D01*
X144890424Y-117955312D01*
X145162499Y-118362501D01*
X145569688Y-118634576D01*
X145928761Y-118706000D01*
X146171239Y-118706000D01*
X146530312Y-118634576D01*
X146937501Y-118362501D01*
X147209576Y-117955312D01*
X147305116Y-117475000D01*
X147209576Y-116994688D01*
X146937501Y-116587499D01*
X146530312Y-116315424D01*
X146171239Y-116244000D01*
X145928761Y-116244000D01*
X145569688Y-116315424D01*
X145162499Y-116587499D01*
X144890424Y-116994688D01*
X144794884Y-117475000D01*
X144765116Y-117475000D01*
X144669576Y-116994688D01*
X144397501Y-116587499D01*
X143990312Y-116315424D01*
X143631239Y-116244000D01*
X143388761Y-116244000D01*
X143029688Y-116315424D01*
X142622499Y-116587499D01*
X142350424Y-116994688D01*
X142254884Y-117475000D01*
X128254000Y-117475000D01*
X128254000Y-114935000D01*
X142254884Y-114935000D01*
X142350424Y-115415312D01*
X142622499Y-115822501D01*
X143029688Y-116094576D01*
X143388761Y-116166000D01*
X143631239Y-116166000D01*
X143990312Y-116094576D01*
X144397501Y-115822501D01*
X144669576Y-115415312D01*
X144765116Y-114935000D01*
X144794884Y-114935000D01*
X144890424Y-115415312D01*
X145162499Y-115822501D01*
X145569688Y-116094576D01*
X145928761Y-116166000D01*
X146171239Y-116166000D01*
X146530312Y-116094576D01*
X146937501Y-115822501D01*
X147209576Y-115415312D01*
X147305116Y-114935000D01*
X147209576Y-114454688D01*
X146937501Y-114047499D01*
X146530312Y-113775424D01*
X146171239Y-113704000D01*
X145928761Y-113704000D01*
X145569688Y-113775424D01*
X145162499Y-114047499D01*
X144890424Y-114454688D01*
X144794884Y-114935000D01*
X144765116Y-114935000D01*
X144669576Y-114454688D01*
X144397501Y-114047499D01*
X143990312Y-113775424D01*
X143631239Y-113704000D01*
X143388761Y-113704000D01*
X143029688Y-113775424D01*
X142622499Y-114047499D01*
X142350424Y-114454688D01*
X142254884Y-114935000D01*
X128254000Y-114935000D01*
X128254000Y-112052976D01*
X133412000Y-112052976D01*
X133412000Y-112483024D01*
X133576572Y-112880337D01*
X133880663Y-113184428D01*
X134277976Y-113349000D01*
X134708024Y-113349000D01*
X135105337Y-113184428D01*
X135409428Y-112880337D01*
X135574000Y-112483024D01*
X135574000Y-112395000D01*
X142254884Y-112395000D01*
X142350424Y-112875312D01*
X142622499Y-113282501D01*
X143029688Y-113554576D01*
X143388761Y-113626000D01*
X143631239Y-113626000D01*
X143990312Y-113554576D01*
X144397501Y-113282501D01*
X144669576Y-112875312D01*
X144765116Y-112395000D01*
X144794884Y-112395000D01*
X144890424Y-112875312D01*
X145162499Y-113282501D01*
X145569688Y-113554576D01*
X145928761Y-113626000D01*
X146171239Y-113626000D01*
X146530312Y-113554576D01*
X146937501Y-113282501D01*
X147209576Y-112875312D01*
X147305116Y-112395000D01*
X147209576Y-111914688D01*
X146937501Y-111507499D01*
X146530312Y-111235424D01*
X146171239Y-111164000D01*
X145928761Y-111164000D01*
X145569688Y-111235424D01*
X145162499Y-111507499D01*
X144890424Y-111914688D01*
X144794884Y-112395000D01*
X144765116Y-112395000D01*
X144669576Y-111914688D01*
X144397501Y-111507499D01*
X143990312Y-111235424D01*
X143631239Y-111164000D01*
X143388761Y-111164000D01*
X143029688Y-111235424D01*
X142622499Y-111507499D01*
X142350424Y-111914688D01*
X142254884Y-112395000D01*
X135574000Y-112395000D01*
X135574000Y-112052976D01*
X135409428Y-111655663D01*
X135105337Y-111351572D01*
X134708024Y-111187000D01*
X134277976Y-111187000D01*
X133880663Y-111351572D01*
X133576572Y-111655663D01*
X133412000Y-112052976D01*
X128254000Y-112052976D01*
X128254000Y-109955989D01*
X128300873Y-109885839D01*
X128307007Y-109855000D01*
X142254884Y-109855000D01*
X142350424Y-110335312D01*
X142622499Y-110742501D01*
X143029688Y-111014576D01*
X143388761Y-111086000D01*
X143631239Y-111086000D01*
X143990312Y-111014576D01*
X144397501Y-110742501D01*
X144669576Y-110335312D01*
X144765116Y-109855000D01*
X144794884Y-109855000D01*
X144890424Y-110335312D01*
X145162499Y-110742501D01*
X145569688Y-111014576D01*
X145928761Y-111086000D01*
X146171239Y-111086000D01*
X146530312Y-111014576D01*
X146937501Y-110742501D01*
X147209576Y-110335312D01*
X147305116Y-109855000D01*
X147209576Y-109374688D01*
X146937501Y-108967499D01*
X146530312Y-108695424D01*
X146171239Y-108624000D01*
X145928761Y-108624000D01*
X145569688Y-108695424D01*
X145162499Y-108967499D01*
X144890424Y-109374688D01*
X144794884Y-109855000D01*
X144765116Y-109855000D01*
X144669576Y-109374688D01*
X144397501Y-108967499D01*
X143990312Y-108695424D01*
X143631239Y-108624000D01*
X143388761Y-108624000D01*
X143029688Y-108695424D01*
X142622499Y-108967499D01*
X142350424Y-109374688D01*
X142254884Y-109855000D01*
X128307007Y-109855000D01*
X128381000Y-109483014D01*
X128381000Y-109483010D01*
X128408054Y-109347001D01*
X128381000Y-109210991D01*
X128381000Y-108369976D01*
X133412000Y-108369976D01*
X133412000Y-108800024D01*
X133576572Y-109197337D01*
X133880663Y-109501428D01*
X134277976Y-109666000D01*
X134708024Y-109666000D01*
X135105337Y-109501428D01*
X135409428Y-109197337D01*
X135574000Y-108800024D01*
X135574000Y-108369976D01*
X135409428Y-107972663D01*
X135105337Y-107668572D01*
X134708024Y-107504000D01*
X134277976Y-107504000D01*
X133880663Y-107668572D01*
X133576572Y-107972663D01*
X133412000Y-108369976D01*
X128381000Y-108369976D01*
X128381000Y-105673009D01*
X128408054Y-105537000D01*
X128381000Y-105400990D01*
X128381000Y-105400986D01*
X128300873Y-104998161D01*
X127995645Y-104541355D01*
X127880339Y-104464310D01*
X127511614Y-104095585D01*
X132192500Y-104095585D01*
X132192500Y-104565415D01*
X132372297Y-104999483D01*
X132704517Y-105331703D01*
X133138585Y-105511500D01*
X133608415Y-105511500D01*
X134042483Y-105331703D01*
X134374703Y-104999483D01*
X134554500Y-104565415D01*
X134554500Y-104095585D01*
X134374703Y-103661517D01*
X134042483Y-103329297D01*
X133608415Y-103149500D01*
X133138585Y-103149500D01*
X132704517Y-103329297D01*
X132372297Y-103661517D01*
X132192500Y-104095585D01*
X127511614Y-104095585D01*
X125721338Y-102305310D01*
X125143028Y-101727000D01*
X128651000Y-101727000D01*
X128699601Y-101717333D01*
X128740803Y-101689803D01*
X128768333Y-101648601D01*
X128778000Y-101600000D01*
X128778000Y-101067476D01*
X129157500Y-101067476D01*
X129157500Y-101497524D01*
X129322072Y-101894837D01*
X129626163Y-102198928D01*
X130023476Y-102363500D01*
X130453524Y-102363500D01*
X130850837Y-102198928D01*
X131154928Y-101894837D01*
X131319500Y-101497524D01*
X131319500Y-101282500D01*
X136756322Y-101282500D01*
X136840220Y-101704285D01*
X137079142Y-102061858D01*
X137436715Y-102300780D01*
X137752031Y-102363500D01*
X137964969Y-102363500D01*
X138280285Y-102300780D01*
X138637858Y-102061858D01*
X138876780Y-101704285D01*
X138960678Y-101282500D01*
X138876780Y-100860715D01*
X138637858Y-100503142D01*
X138280285Y-100264220D01*
X137964969Y-100201500D01*
X137752031Y-100201500D01*
X137436715Y-100264220D01*
X137079142Y-100503142D01*
X136840220Y-100860715D01*
X136756322Y-101282500D01*
X131319500Y-101282500D01*
X131319500Y-101067476D01*
X131154928Y-100670163D01*
X130850837Y-100366072D01*
X130453524Y-100201500D01*
X130023476Y-100201500D01*
X129626163Y-100366072D01*
X129322072Y-100670163D01*
X129157500Y-101067476D01*
X128778000Y-101067476D01*
X128778000Y-96740510D01*
X129179760Y-96740510D01*
X129179760Y-96941810D01*
X129256794Y-97127786D01*
X129399134Y-97270126D01*
X129585110Y-97347160D01*
X129786410Y-97347160D01*
X129972386Y-97270126D01*
X130114726Y-97127786D01*
X130191760Y-96941810D01*
X130191760Y-96740510D01*
X133429760Y-96740510D01*
X133429760Y-96941810D01*
X133506794Y-97127786D01*
X133649134Y-97270126D01*
X133835110Y-97347160D01*
X134036410Y-97347160D01*
X134222386Y-97270126D01*
X134364726Y-97127786D01*
X134441760Y-96941810D01*
X134441760Y-96740510D01*
X134364726Y-96554534D01*
X134222386Y-96412194D01*
X134036410Y-96335160D01*
X133835110Y-96335160D01*
X133649134Y-96412194D01*
X133506794Y-96554534D01*
X133429760Y-96740510D01*
X130191760Y-96740510D01*
X130114726Y-96554534D01*
X129972386Y-96412194D01*
X129786410Y-96335160D01*
X129585110Y-96335160D01*
X129399134Y-96412194D01*
X129256794Y-96554534D01*
X129179760Y-96740510D01*
X128778000Y-96740510D01*
X128778000Y-95071000D01*
X139244001Y-95071000D01*
X139244001Y-96929554D01*
X139244001Y-96929554D01*
G37*
X139244001Y-96929554D02*
X139064188Y-96749741D01*
X138593367Y-96554720D01*
X138083753Y-96554720D01*
X137612932Y-96749741D01*
X137252581Y-97110092D01*
X137057560Y-97580913D01*
X137057560Y-98090527D01*
X137252581Y-98561348D01*
X137612932Y-98921699D01*
X138083753Y-99116720D01*
X138593367Y-99116720D01*
X139064188Y-98921699D01*
X139244001Y-98741886D01*
X139244000Y-103845682D01*
X139093738Y-103482918D01*
X138452082Y-102841262D01*
X137613719Y-102494000D01*
X136706281Y-102494000D01*
X135867918Y-102841262D01*
X135226262Y-103482918D01*
X134879000Y-104321281D01*
X134879000Y-105228719D01*
X135226262Y-106067082D01*
X135867918Y-106708738D01*
X136706281Y-107056000D01*
X137613719Y-107056000D01*
X138452082Y-106708738D01*
X138695820Y-106465000D01*
X142271536Y-106465000D01*
X142271536Y-108165000D01*
X142301106Y-108313659D01*
X142385314Y-108439686D01*
X142511341Y-108523894D01*
X142660000Y-108553464D01*
X144360000Y-108553464D01*
X144508659Y-108523894D01*
X144634686Y-108439686D01*
X144718894Y-108313659D01*
X144748464Y-108165000D01*
X144748464Y-107315000D01*
X144794884Y-107315000D01*
X144890424Y-107795312D01*
X145162499Y-108202501D01*
X145569688Y-108474576D01*
X145928761Y-108546000D01*
X146171239Y-108546000D01*
X146530312Y-108474576D01*
X146937501Y-108202501D01*
X147209576Y-107795312D01*
X147305116Y-107315000D01*
X147209576Y-106834688D01*
X146937501Y-106427499D01*
X146530312Y-106155424D01*
X146171239Y-106084000D01*
X145928761Y-106084000D01*
X145569688Y-106155424D01*
X145162499Y-106427499D01*
X144890424Y-106834688D01*
X144794884Y-107315000D01*
X144748464Y-107315000D01*
X144748464Y-106465000D01*
X144718894Y-106316341D01*
X144634686Y-106190314D01*
X144508659Y-106106106D01*
X144360000Y-106076536D01*
X142660000Y-106076536D01*
X142511341Y-106106106D01*
X142385314Y-106190314D01*
X142301106Y-106316341D01*
X142271536Y-106465000D01*
X138695820Y-106465000D01*
X139093738Y-106067082D01*
X139441000Y-105228719D01*
X139441000Y-105150367D01*
X139522078Y-105204542D01*
X139700000Y-105239933D01*
X139744909Y-105231000D01*
X148134001Y-105231000D01*
X148134000Y-125685091D01*
X148125067Y-125730000D01*
X148160458Y-125907922D01*
X148239213Y-126025787D01*
X148261243Y-126058757D01*
X148412078Y-126159542D01*
X148590000Y-126194933D01*
X148634909Y-126186000D01*
X152521683Y-126186000D01*
X152496046Y-126224368D01*
X149536910Y-129183506D01*
X149527181Y-129185441D01*
X149527178Y-129185441D01*
X149341954Y-129222284D01*
X149131910Y-129362632D01*
X149096483Y-129415652D01*
X149072695Y-129439440D01*
X148674696Y-129439440D01*
X148277383Y-129604012D01*
X147973292Y-129908103D01*
X147808720Y-130305416D01*
X147808720Y-130735464D01*
X147973292Y-131132777D01*
X148277383Y-131436868D01*
X148674696Y-131601440D01*
X149104744Y-131601440D01*
X149502057Y-131436868D01*
X149806148Y-131132777D01*
X149970720Y-130735464D01*
X149970720Y-130433525D01*
X150045764Y-130418598D01*
X150255808Y-130278250D01*
X150291237Y-130225227D01*
X153252306Y-127264160D01*
X155737375Y-127264160D01*
X155516840Y-127594215D01*
X155432942Y-128016000D01*
X155516840Y-128437785D01*
X155755762Y-128795358D01*
X156113335Y-129034280D01*
X156428651Y-129097000D01*
X156641589Y-129097000D01*
X156956905Y-129034280D01*
X157314478Y-128795358D01*
X157525036Y-128480235D01*
X157525036Y-128916000D01*
X157554606Y-129064659D01*
X157638814Y-129190686D01*
X157764841Y-129274894D01*
X157913500Y-129304464D01*
X159713500Y-129304464D01*
X159862159Y-129274894D01*
X159988186Y-129190686D01*
X160072394Y-129064659D01*
X160101964Y-128916000D01*
X160101964Y-128341939D01*
X160267521Y-128741628D01*
X160627872Y-129101979D01*
X161098693Y-129297000D01*
X161608307Y-129297000D01*
X162079128Y-129101979D01*
X162104001Y-129077106D01*
X162104000Y-145594000D01*
X147636289Y-145594000D01*
X147934645Y-145394645D01*
X148175620Y-145034000D01*
X155095903Y-145034000D01*
X155158440Y-145046439D01*
X155220977Y-145034000D01*
X155220981Y-145034000D01*
X155406205Y-144997157D01*
X155616249Y-144856809D01*
X155640297Y-144820819D01*
X155670285Y-144833240D01*
X156140115Y-144833240D01*
X156574183Y-144653443D01*
X156906403Y-144321223D01*
X157086200Y-143887155D01*
X157086200Y-143417325D01*
X157072123Y-143383341D01*
X159297029Y-141158436D01*
X159350049Y-141123009D01*
X159490397Y-140912965D01*
X159527240Y-140727741D01*
X159527240Y-140727736D01*
X159539679Y-140665201D01*
X159527240Y-140602665D01*
X159527240Y-132965496D01*
X159539679Y-132902959D01*
X159527240Y-132840420D01*
X159527240Y-132840419D01*
X159490397Y-132655195D01*
X159350049Y-132445151D01*
X159297029Y-132409724D01*
X157578027Y-130690723D01*
X157611898Y-130520440D01*
X157528000Y-130098655D01*
X157289078Y-129741082D01*
X156931505Y-129502160D01*
X156616189Y-129439440D01*
X156403251Y-129439440D01*
X156087935Y-129502160D01*
X155730362Y-129741082D01*
X155491440Y-130098655D01*
X155407542Y-130520440D01*
X155491440Y-130942225D01*
X155730362Y-131299798D01*
X156087935Y-131538720D01*
X156403251Y-131601440D01*
X156616189Y-131601440D01*
X156680002Y-131588747D01*
X158257240Y-133165985D01*
X158257240Y-133554781D01*
X158257241Y-133554786D01*
X158257240Y-140402175D01*
X156174099Y-142485317D01*
X156140115Y-142471240D01*
X155670285Y-142471240D01*
X155236217Y-142651037D01*
X154903997Y-142983257D01*
X154724200Y-143417325D01*
X154724200Y-143764000D01*
X148175620Y-143764000D01*
X147934645Y-143403355D01*
X147495581Y-143109982D01*
X147558165Y-143068165D01*
X147752883Y-142776749D01*
X147821259Y-142433000D01*
X147752883Y-142089251D01*
X147558165Y-141797835D01*
X147266749Y-141603117D01*
X147009767Y-141552000D01*
X144408282Y-141552000D01*
X140805811Y-137949529D01*
X142886480Y-137949529D01*
X142886480Y-138260231D01*
X143005380Y-138547281D01*
X143225079Y-138766980D01*
X143512129Y-138885880D01*
X143822831Y-138885880D01*
X144109881Y-138766980D01*
X144329580Y-138547281D01*
X144448480Y-138260231D01*
X144448480Y-137949529D01*
X144329580Y-137662479D01*
X144109881Y-137442780D01*
X143822831Y-137323880D01*
X143512129Y-137323880D01*
X143225079Y-137442780D01*
X143005380Y-137662479D01*
X142886480Y-137949529D01*
X140805811Y-137949529D01*
X139962677Y-137106396D01*
X139913525Y-137032835D01*
X139622109Y-136838117D01*
X139365127Y-136787000D01*
X139365123Y-136787000D01*
X139278360Y-136769742D01*
X139191597Y-136787000D01*
X133333922Y-136787000D01*
X130921154Y-134374233D01*
X130948054Y-134239000D01*
X130921000Y-134102991D01*
X130921000Y-131890028D01*
X132101819Y-130709210D01*
X132217125Y-130632165D01*
X132522353Y-130175359D01*
X132602480Y-129772534D01*
X132602480Y-129772530D01*
X132629534Y-129636520D01*
X132602480Y-129500511D01*
X132602480Y-128972919D01*
X134481946Y-128972919D01*
X134509001Y-129108933D01*
X134509000Y-133740013D01*
X134589127Y-134142838D01*
X134894355Y-134599644D01*
X135351161Y-134904873D01*
X135890000Y-135012055D01*
X136428838Y-134904873D01*
X136451097Y-134890000D01*
X154914462Y-134890000D01*
X154990599Y-135272767D01*
X155207419Y-135597261D01*
X155531913Y-135814081D01*
X155818064Y-135871000D01*
X156561296Y-135871000D01*
X156847447Y-135814081D01*
X157171941Y-135597261D01*
X157388761Y-135272767D01*
X157464898Y-134890000D01*
X157388761Y-134507233D01*
X157171941Y-134182739D01*
X156847447Y-133965919D01*
X156561296Y-133909000D01*
X155818064Y-133909000D01*
X155531913Y-133965919D01*
X155207419Y-134182739D01*
X154990599Y-134507233D01*
X154914462Y-134890000D01*
X136451097Y-134890000D01*
X136885644Y-134599645D01*
X137190873Y-134142839D01*
X137271000Y-133740014D01*
X137271000Y-129544947D01*
X141720947Y-125095000D01*
X144794884Y-125095000D01*
X144890424Y-125575312D01*
X145162499Y-125982501D01*
X145569688Y-126254576D01*
X145928761Y-126326000D01*
X146171239Y-126326000D01*
X146530312Y-126254576D01*
X146937501Y-125982501D01*
X147209576Y-125575312D01*
X147305116Y-125095000D01*
X147209576Y-124614688D01*
X146937501Y-124207499D01*
X146530312Y-123935424D01*
X146171239Y-123864000D01*
X145928761Y-123864000D01*
X145569688Y-123935424D01*
X145162499Y-124207499D01*
X144890424Y-124614688D01*
X144794884Y-125095000D01*
X141720947Y-125095000D01*
X142879948Y-123936000D01*
X143646014Y-123936000D01*
X144048839Y-123855873D01*
X144505645Y-123550645D01*
X144810873Y-123093839D01*
X144856469Y-122864611D01*
X144890424Y-123035312D01*
X145162499Y-123442501D01*
X145569688Y-123714576D01*
X145928761Y-123786000D01*
X146171239Y-123786000D01*
X146530312Y-123714576D01*
X146937501Y-123442501D01*
X147209576Y-123035312D01*
X147305116Y-122555000D01*
X147209576Y-122074688D01*
X146937501Y-121667499D01*
X146530312Y-121395424D01*
X146171239Y-121324000D01*
X145928761Y-121324000D01*
X145569688Y-121395424D01*
X145162499Y-121667499D01*
X144890424Y-122074688D01*
X144856469Y-122245389D01*
X144810873Y-122016161D01*
X144505645Y-121559355D01*
X144048839Y-121254127D01*
X143819611Y-121208531D01*
X143990312Y-121174576D01*
X144397501Y-120902501D01*
X144669576Y-120495312D01*
X144765116Y-120015000D01*
X144794884Y-120015000D01*
X144890424Y-120495312D01*
X145162499Y-120902501D01*
X145569688Y-121174576D01*
X145928761Y-121246000D01*
X146171239Y-121246000D01*
X146530312Y-121174576D01*
X146937501Y-120902501D01*
X147209576Y-120495312D01*
X147305116Y-120015000D01*
X147209576Y-119534688D01*
X146937501Y-119127499D01*
X146530312Y-118855424D01*
X146171239Y-118784000D01*
X145928761Y-118784000D01*
X145569688Y-118855424D01*
X145162499Y-119127499D01*
X144890424Y-119534688D01*
X144794884Y-120015000D01*
X144765116Y-120015000D01*
X144669576Y-119534688D01*
X144397501Y-119127499D01*
X143990312Y-118855424D01*
X143631239Y-118784000D01*
X143388761Y-118784000D01*
X143029688Y-118855424D01*
X142622499Y-119127499D01*
X142350424Y-119534688D01*
X142254884Y-120015000D01*
X142350424Y-120495312D01*
X142622499Y-120902501D01*
X143028826Y-121174000D01*
X142443928Y-121174000D01*
X142307918Y-121146946D01*
X142171909Y-121174000D01*
X142171905Y-121174000D01*
X141769080Y-121254127D01*
X141312274Y-121559355D01*
X141235229Y-121674661D01*
X135009662Y-127900229D01*
X134894356Y-127977274D01*
X134817311Y-128092580D01*
X134817310Y-128092581D01*
X134589128Y-128434080D01*
X134481946Y-128972919D01*
X132602480Y-128972919D01*
X132602480Y-128149226D01*
X132522353Y-127746401D01*
X132217124Y-127289595D01*
X131760318Y-126984367D01*
X131221480Y-126877185D01*
X130682641Y-126984367D01*
X130225835Y-127289596D01*
X129920607Y-127746402D01*
X129840480Y-128149227D01*
X129840480Y-129064491D01*
X128757727Y-130147245D01*
X128679000Y-130225972D01*
X128679000Y-130164285D01*
X128689500Y-130111500D01*
X128676393Y-130045609D01*
X128647900Y-129902364D01*
X128529434Y-129725066D01*
X128484684Y-129695166D01*
X126802562Y-128013044D01*
X126873000Y-128027055D01*
X127411838Y-127919873D01*
X127868644Y-127614645D01*
X128173873Y-127157839D01*
X128254000Y-126755014D01*
X128254000Y-117475000D01*
X142254884Y-117475000D01*
X142350424Y-117955312D01*
X142622499Y-118362501D01*
X143029688Y-118634576D01*
X143388761Y-118706000D01*
X143631239Y-118706000D01*
X143990312Y-118634576D01*
X144397501Y-118362501D01*
X144669576Y-117955312D01*
X144765116Y-117475000D01*
X144794884Y-117475000D01*
X144890424Y-117955312D01*
X145162499Y-118362501D01*
X145569688Y-118634576D01*
X145928761Y-118706000D01*
X146171239Y-118706000D01*
X146530312Y-118634576D01*
X146937501Y-118362501D01*
X147209576Y-117955312D01*
X147305116Y-117475000D01*
X147209576Y-116994688D01*
X146937501Y-116587499D01*
X146530312Y-116315424D01*
X146171239Y-116244000D01*
X145928761Y-116244000D01*
X145569688Y-116315424D01*
X145162499Y-116587499D01*
X144890424Y-116994688D01*
X144794884Y-117475000D01*
X144765116Y-117475000D01*
X144669576Y-116994688D01*
X144397501Y-116587499D01*
X143990312Y-116315424D01*
X143631239Y-116244000D01*
X143388761Y-116244000D01*
X143029688Y-116315424D01*
X142622499Y-116587499D01*
X142350424Y-116994688D01*
X142254884Y-117475000D01*
X128254000Y-117475000D01*
X128254000Y-114935000D01*
X142254884Y-114935000D01*
X142350424Y-115415312D01*
X142622499Y-115822501D01*
X143029688Y-116094576D01*
X143388761Y-116166000D01*
X143631239Y-116166000D01*
X143990312Y-116094576D01*
X144397501Y-115822501D01*
X144669576Y-115415312D01*
X144765116Y-114935000D01*
X144794884Y-114935000D01*
X144890424Y-115415312D01*
X145162499Y-115822501D01*
X145569688Y-116094576D01*
X145928761Y-116166000D01*
X146171239Y-116166000D01*
X146530312Y-116094576D01*
X146937501Y-115822501D01*
X147209576Y-115415312D01*
X147305116Y-114935000D01*
X147209576Y-114454688D01*
X146937501Y-114047499D01*
X146530312Y-113775424D01*
X146171239Y-113704000D01*
X145928761Y-113704000D01*
X145569688Y-113775424D01*
X145162499Y-114047499D01*
X144890424Y-114454688D01*
X144794884Y-114935000D01*
X144765116Y-114935000D01*
X144669576Y-114454688D01*
X144397501Y-114047499D01*
X143990312Y-113775424D01*
X143631239Y-113704000D01*
X143388761Y-113704000D01*
X143029688Y-113775424D01*
X142622499Y-114047499D01*
X142350424Y-114454688D01*
X142254884Y-114935000D01*
X128254000Y-114935000D01*
X128254000Y-112052976D01*
X133412000Y-112052976D01*
X133412000Y-112483024D01*
X133576572Y-112880337D01*
X133880663Y-113184428D01*
X134277976Y-113349000D01*
X134708024Y-113349000D01*
X135105337Y-113184428D01*
X135409428Y-112880337D01*
X135574000Y-112483024D01*
X135574000Y-112395000D01*
X142254884Y-112395000D01*
X142350424Y-112875312D01*
X142622499Y-113282501D01*
X143029688Y-113554576D01*
X143388761Y-113626000D01*
X143631239Y-113626000D01*
X143990312Y-113554576D01*
X144397501Y-113282501D01*
X144669576Y-112875312D01*
X144765116Y-112395000D01*
X144794884Y-112395000D01*
X144890424Y-112875312D01*
X145162499Y-113282501D01*
X145569688Y-113554576D01*
X145928761Y-113626000D01*
X146171239Y-113626000D01*
X146530312Y-113554576D01*
X146937501Y-113282501D01*
X147209576Y-112875312D01*
X147305116Y-112395000D01*
X147209576Y-111914688D01*
X146937501Y-111507499D01*
X146530312Y-111235424D01*
X146171239Y-111164000D01*
X145928761Y-111164000D01*
X145569688Y-111235424D01*
X145162499Y-111507499D01*
X144890424Y-111914688D01*
X144794884Y-112395000D01*
X144765116Y-112395000D01*
X144669576Y-111914688D01*
X144397501Y-111507499D01*
X143990312Y-111235424D01*
X143631239Y-111164000D01*
X143388761Y-111164000D01*
X143029688Y-111235424D01*
X142622499Y-111507499D01*
X142350424Y-111914688D01*
X142254884Y-112395000D01*
X135574000Y-112395000D01*
X135574000Y-112052976D01*
X135409428Y-111655663D01*
X135105337Y-111351572D01*
X134708024Y-111187000D01*
X134277976Y-111187000D01*
X133880663Y-111351572D01*
X133576572Y-111655663D01*
X133412000Y-112052976D01*
X128254000Y-112052976D01*
X128254000Y-109955989D01*
X128300873Y-109885839D01*
X128307007Y-109855000D01*
X142254884Y-109855000D01*
X142350424Y-110335312D01*
X142622499Y-110742501D01*
X143029688Y-111014576D01*
X143388761Y-111086000D01*
X143631239Y-111086000D01*
X143990312Y-111014576D01*
X144397501Y-110742501D01*
X144669576Y-110335312D01*
X144765116Y-109855000D01*
X144794884Y-109855000D01*
X144890424Y-110335312D01*
X145162499Y-110742501D01*
X145569688Y-111014576D01*
X145928761Y-111086000D01*
X146171239Y-111086000D01*
X146530312Y-111014576D01*
X146937501Y-110742501D01*
X147209576Y-110335312D01*
X147305116Y-109855000D01*
X147209576Y-109374688D01*
X146937501Y-108967499D01*
X146530312Y-108695424D01*
X146171239Y-108624000D01*
X145928761Y-108624000D01*
X145569688Y-108695424D01*
X145162499Y-108967499D01*
X144890424Y-109374688D01*
X144794884Y-109855000D01*
X144765116Y-109855000D01*
X144669576Y-109374688D01*
X144397501Y-108967499D01*
X143990312Y-108695424D01*
X143631239Y-108624000D01*
X143388761Y-108624000D01*
X143029688Y-108695424D01*
X142622499Y-108967499D01*
X142350424Y-109374688D01*
X142254884Y-109855000D01*
X128307007Y-109855000D01*
X128381000Y-109483014D01*
X128381000Y-109483010D01*
X128408054Y-109347001D01*
X128381000Y-109210991D01*
X128381000Y-108369976D01*
X133412000Y-108369976D01*
X133412000Y-108800024D01*
X133576572Y-109197337D01*
X133880663Y-109501428D01*
X134277976Y-109666000D01*
X134708024Y-109666000D01*
X135105337Y-109501428D01*
X135409428Y-109197337D01*
X135574000Y-108800024D01*
X135574000Y-108369976D01*
X135409428Y-107972663D01*
X135105337Y-107668572D01*
X134708024Y-107504000D01*
X134277976Y-107504000D01*
X133880663Y-107668572D01*
X133576572Y-107972663D01*
X133412000Y-108369976D01*
X128381000Y-108369976D01*
X128381000Y-105673009D01*
X128408054Y-105537000D01*
X128381000Y-105400990D01*
X128381000Y-105400986D01*
X128300873Y-104998161D01*
X127995645Y-104541355D01*
X127880339Y-104464310D01*
X127511614Y-104095585D01*
X132192500Y-104095585D01*
X132192500Y-104565415D01*
X132372297Y-104999483D01*
X132704517Y-105331703D01*
X133138585Y-105511500D01*
X133608415Y-105511500D01*
X134042483Y-105331703D01*
X134374703Y-104999483D01*
X134554500Y-104565415D01*
X134554500Y-104095585D01*
X134374703Y-103661517D01*
X134042483Y-103329297D01*
X133608415Y-103149500D01*
X133138585Y-103149500D01*
X132704517Y-103329297D01*
X132372297Y-103661517D01*
X132192500Y-104095585D01*
X127511614Y-104095585D01*
X125721338Y-102305310D01*
X125143028Y-101727000D01*
X128651000Y-101727000D01*
X128699601Y-101717333D01*
X128740803Y-101689803D01*
X128768333Y-101648601D01*
X128778000Y-101600000D01*
X128778000Y-101067476D01*
X129157500Y-101067476D01*
X129157500Y-101497524D01*
X129322072Y-101894837D01*
X129626163Y-102198928D01*
X130023476Y-102363500D01*
X130453524Y-102363500D01*
X130850837Y-102198928D01*
X131154928Y-101894837D01*
X131319500Y-101497524D01*
X131319500Y-101282500D01*
X136756322Y-101282500D01*
X136840220Y-101704285D01*
X137079142Y-102061858D01*
X137436715Y-102300780D01*
X137752031Y-102363500D01*
X137964969Y-102363500D01*
X138280285Y-102300780D01*
X138637858Y-102061858D01*
X138876780Y-101704285D01*
X138960678Y-101282500D01*
X138876780Y-100860715D01*
X138637858Y-100503142D01*
X138280285Y-100264220D01*
X137964969Y-100201500D01*
X137752031Y-100201500D01*
X137436715Y-100264220D01*
X137079142Y-100503142D01*
X136840220Y-100860715D01*
X136756322Y-101282500D01*
X131319500Y-101282500D01*
X131319500Y-101067476D01*
X131154928Y-100670163D01*
X130850837Y-100366072D01*
X130453524Y-100201500D01*
X130023476Y-100201500D01*
X129626163Y-100366072D01*
X129322072Y-100670163D01*
X129157500Y-101067476D01*
X128778000Y-101067476D01*
X128778000Y-96740510D01*
X129179760Y-96740510D01*
X129179760Y-96941810D01*
X129256794Y-97127786D01*
X129399134Y-97270126D01*
X129585110Y-97347160D01*
X129786410Y-97347160D01*
X129972386Y-97270126D01*
X130114726Y-97127786D01*
X130191760Y-96941810D01*
X130191760Y-96740510D01*
X133429760Y-96740510D01*
X133429760Y-96941810D01*
X133506794Y-97127786D01*
X133649134Y-97270126D01*
X133835110Y-97347160D01*
X134036410Y-97347160D01*
X134222386Y-97270126D01*
X134364726Y-97127786D01*
X134441760Y-96941810D01*
X134441760Y-96740510D01*
X134364726Y-96554534D01*
X134222386Y-96412194D01*
X134036410Y-96335160D01*
X133835110Y-96335160D01*
X133649134Y-96412194D01*
X133506794Y-96554534D01*
X133429760Y-96740510D01*
X130191760Y-96740510D01*
X130114726Y-96554534D01*
X129972386Y-96412194D01*
X129786410Y-96335160D01*
X129585110Y-96335160D01*
X129399134Y-96412194D01*
X129256794Y-96554534D01*
X129179760Y-96740510D01*
X128778000Y-96740510D01*
X128778000Y-95071000D01*
X139244001Y-95071000D01*
X139244001Y-96929554D01*
G36*
X93949127Y-123093839D02*
X94254355Y-123550645D01*
X94711161Y-123855873D01*
X95113986Y-123936000D01*
X97807474Y-123936000D01*
X100127560Y-126256087D01*
X100127561Y-132593674D01*
X95042392Y-132591422D01*
X95042098Y-132591300D01*
X94903409Y-132591300D01*
X94767400Y-132564246D01*
X94631391Y-132591300D01*
X94492702Y-132591300D01*
X94364858Y-132644255D01*
X94229138Y-132671189D01*
X94228873Y-132671366D01*
X94228561Y-132671428D01*
X94113256Y-132748472D01*
X93985127Y-132801545D01*
X93887280Y-132899392D01*
X93772196Y-132976215D01*
X93772020Y-132976478D01*
X93771755Y-132976655D01*
X93694709Y-133091963D01*
X93596645Y-133190027D01*
X93543690Y-133317871D01*
X93466766Y-133432886D01*
X93466704Y-133433198D01*
X93466528Y-133433461D01*
X93439474Y-133569470D01*
X93386400Y-133697602D01*
X93386400Y-133835981D01*
X93359346Y-133971677D01*
X93359408Y-133971989D01*
X93359346Y-133972300D01*
X93386400Y-134108309D01*
X93386400Y-134246998D01*
X93439355Y-134374843D01*
X93466289Y-134510562D01*
X93466466Y-134510827D01*
X93466528Y-134511139D01*
X93543572Y-134626443D01*
X93596645Y-134754573D01*
X93694492Y-134852420D01*
X93771315Y-134967504D01*
X93886844Y-135044772D01*
X93985127Y-135143055D01*
X94096660Y-135189254D01*
X94241261Y-135285873D01*
X94411829Y-135319801D01*
X94492702Y-135353300D01*
X94580239Y-135353300D01*
X94780100Y-135393055D01*
X94979492Y-135353393D01*
X101355274Y-135356217D01*
X101376750Y-135360489D01*
X101376754Y-135360489D01*
X101512763Y-135387543D01*
X101648773Y-135360489D01*
X105595351Y-135360489D01*
X105556100Y-135455249D01*
X105556100Y-135765951D01*
X105675000Y-136053001D01*
X105894699Y-136272700D01*
X106082525Y-136350500D01*
X93396329Y-136350500D01*
X93024200Y-135978372D01*
X93024200Y-126733828D01*
X93782690Y-125975339D01*
X94010872Y-125633840D01*
X94118054Y-125095001D01*
X94010872Y-124556161D01*
X93705645Y-124099355D01*
X93248839Y-123794128D01*
X93019608Y-123748531D01*
X93190312Y-123714576D01*
X93597501Y-123442501D01*
X93869576Y-123035312D01*
X93903531Y-122864611D01*
X93949127Y-123093839D01*
X93949127Y-123093839D01*
G37*
X93949127Y-123093839D02*
X94254355Y-123550645D01*
X94711161Y-123855873D01*
X95113986Y-123936000D01*
X97807474Y-123936000D01*
X100127560Y-126256087D01*
X100127561Y-132593674D01*
X95042392Y-132591422D01*
X95042098Y-132591300D01*
X94903409Y-132591300D01*
X94767400Y-132564246D01*
X94631391Y-132591300D01*
X94492702Y-132591300D01*
X94364858Y-132644255D01*
X94229138Y-132671189D01*
X94228873Y-132671366D01*
X94228561Y-132671428D01*
X94113256Y-132748472D01*
X93985127Y-132801545D01*
X93887280Y-132899392D01*
X93772196Y-132976215D01*
X93772020Y-132976478D01*
X93771755Y-132976655D01*
X93694709Y-133091963D01*
X93596645Y-133190027D01*
X93543690Y-133317871D01*
X93466766Y-133432886D01*
X93466704Y-133433198D01*
X93466528Y-133433461D01*
X93439474Y-133569470D01*
X93386400Y-133697602D01*
X93386400Y-133835981D01*
X93359346Y-133971677D01*
X93359408Y-133971989D01*
X93359346Y-133972300D01*
X93386400Y-134108309D01*
X93386400Y-134246998D01*
X93439355Y-134374843D01*
X93466289Y-134510562D01*
X93466466Y-134510827D01*
X93466528Y-134511139D01*
X93543572Y-134626443D01*
X93596645Y-134754573D01*
X93694492Y-134852420D01*
X93771315Y-134967504D01*
X93886844Y-135044772D01*
X93985127Y-135143055D01*
X94096660Y-135189254D01*
X94241261Y-135285873D01*
X94411829Y-135319801D01*
X94492702Y-135353300D01*
X94580239Y-135353300D01*
X94780100Y-135393055D01*
X94979492Y-135353393D01*
X101355274Y-135356217D01*
X101376750Y-135360489D01*
X101376754Y-135360489D01*
X101512763Y-135387543D01*
X101648773Y-135360489D01*
X105595351Y-135360489D01*
X105556100Y-135455249D01*
X105556100Y-135765951D01*
X105675000Y-136053001D01*
X105894699Y-136272700D01*
X106082525Y-136350500D01*
X93396329Y-136350500D01*
X93024200Y-135978372D01*
X93024200Y-126733828D01*
X93782690Y-125975339D01*
X94010872Y-125633840D01*
X94118054Y-125095001D01*
X94010872Y-124556161D01*
X93705645Y-124099355D01*
X93248839Y-123794128D01*
X93019608Y-123748531D01*
X93190312Y-123714576D01*
X93597501Y-123442501D01*
X93869576Y-123035312D01*
X93903531Y-122864611D01*
X93949127Y-123093839D01*
G36*
X123768310Y-104258338D02*
X125619001Y-106109030D01*
X125619000Y-108865012D01*
X125572128Y-108935161D01*
X125464946Y-109474000D01*
X125492001Y-109610014D01*
X125492001Y-117301943D01*
X124996000Y-116805942D01*
X124996000Y-109279785D01*
X125006500Y-109226999D01*
X124996000Y-109174213D01*
X124964900Y-109017864D01*
X124846434Y-108840566D01*
X124801682Y-108810664D01*
X124622337Y-108631319D01*
X124622335Y-108631316D01*
X123351260Y-107360241D01*
X123462100Y-107249401D01*
X123581000Y-106962351D01*
X123581000Y-106651649D01*
X123462100Y-106364599D01*
X123242401Y-106144900D01*
X122955351Y-106026000D01*
X122644649Y-106026000D01*
X122357599Y-106144900D01*
X122137900Y-106364599D01*
X122019000Y-106651649D01*
X122019000Y-106962351D01*
X122137900Y-107249401D01*
X122264000Y-107375501D01*
X122264000Y-107514215D01*
X122253500Y-107567000D01*
X122264000Y-107619785D01*
X122264000Y-107619787D01*
X122278080Y-107690567D01*
X122295101Y-107776136D01*
X122383665Y-107908683D01*
X122383667Y-107908685D01*
X122413567Y-107953434D01*
X122458316Y-107983334D01*
X123864316Y-109389335D01*
X123864319Y-109389337D01*
X123924001Y-109449019D01*
X123924000Y-113259981D01*
X120424000Y-109759982D01*
X120424000Y-108858000D01*
X120424351Y-108858000D01*
X120711401Y-108739100D01*
X120931100Y-108519401D01*
X121050000Y-108232351D01*
X121050000Y-107921649D01*
X120931100Y-107634599D01*
X120711401Y-107414900D01*
X120424351Y-107296000D01*
X120113649Y-107296000D01*
X119826599Y-107414900D01*
X119606900Y-107634599D01*
X119488000Y-107921649D01*
X119488000Y-108091869D01*
X119383100Y-108248865D01*
X119352000Y-108405213D01*
X119341500Y-108458000D01*
X119352000Y-108510786D01*
X119352001Y-109929210D01*
X119341500Y-109982000D01*
X119383101Y-110191136D01*
X119471665Y-110323683D01*
X119471667Y-110323685D01*
X119501567Y-110368434D01*
X119546316Y-110398334D01*
X123289000Y-114141019D01*
X123289001Y-117401890D01*
X123278500Y-117454680D01*
X123320101Y-117663816D01*
X123408665Y-117796363D01*
X123408667Y-117796365D01*
X123438567Y-117841114D01*
X123483316Y-117871014D01*
X124373580Y-118761279D01*
X124373580Y-120313561D01*
X123590000Y-119529982D01*
X123590000Y-119351649D01*
X123471100Y-119064599D01*
X123251401Y-118844900D01*
X122964351Y-118726000D01*
X122653649Y-118726000D01*
X122366599Y-118844900D01*
X122146900Y-119064599D01*
X122028000Y-119351649D01*
X122028000Y-119662351D01*
X122146900Y-119949401D01*
X122366599Y-120169100D01*
X122653649Y-120288000D01*
X122831982Y-120288000D01*
X123741121Y-121197140D01*
X123741120Y-129516101D01*
X121667502Y-131589720D01*
X116836796Y-131589720D01*
X116894576Y-131531940D01*
X117066760Y-131116250D01*
X117066760Y-130666310D01*
X116894576Y-130250620D01*
X116576420Y-129932464D01*
X116160730Y-129760280D01*
X115710790Y-129760280D01*
X115295100Y-129932464D01*
X114976944Y-130250620D01*
X114804760Y-130666310D01*
X114804760Y-131116250D01*
X114976944Y-131531940D01*
X115034724Y-131589720D01*
X114852219Y-131589720D01*
X114483409Y-131220910D01*
X114526760Y-131116250D01*
X114526760Y-130666310D01*
X114354576Y-130250620D01*
X114036420Y-129932464D01*
X113620730Y-129760280D01*
X113170790Y-129760280D01*
X112755100Y-129932464D01*
X112436944Y-130250620D01*
X112264760Y-130666310D01*
X112264760Y-131116250D01*
X112436944Y-131531940D01*
X112755100Y-131850096D01*
X113170790Y-132022280D01*
X113620730Y-132022280D01*
X113725390Y-131978929D01*
X114213865Y-132467404D01*
X114243766Y-132512154D01*
X114381224Y-132604000D01*
X110883241Y-132604000D01*
X110855535Y-132598489D01*
X110855530Y-132598489D01*
X110719521Y-132571435D01*
X110583512Y-132598489D01*
X106594773Y-132598489D01*
X106724680Y-132284864D01*
X106724680Y-131854816D01*
X106682987Y-131754160D01*
X106702300Y-131725256D01*
X106733400Y-131568907D01*
X106733400Y-131568903D01*
X106743899Y-131516121D01*
X106733400Y-131463339D01*
X106733400Y-130141280D01*
X109717296Y-130141280D01*
X109717296Y-131641280D01*
X109746866Y-131789939D01*
X109831074Y-131915966D01*
X109957101Y-132000174D01*
X110105760Y-132029744D01*
X111605760Y-132029744D01*
X111754419Y-132000174D01*
X111880446Y-131915966D01*
X111964654Y-131789939D01*
X111994224Y-131641280D01*
X111994224Y-130141280D01*
X111964654Y-129992621D01*
X111880446Y-129866594D01*
X111754419Y-129782386D01*
X111605760Y-129752816D01*
X110105760Y-129752816D01*
X109957101Y-129782386D01*
X109831074Y-129866594D01*
X109746866Y-129992621D01*
X109717296Y-130141280D01*
X106733400Y-130141280D01*
X106733400Y-129912247D01*
X106838060Y-129868896D01*
X107156216Y-129550740D01*
X107328400Y-129135050D01*
X107328400Y-128685110D01*
X107606400Y-128685110D01*
X107606400Y-129135050D01*
X107778584Y-129550740D01*
X108096740Y-129868896D01*
X108512430Y-130041080D01*
X108962370Y-130041080D01*
X109378060Y-129868896D01*
X109696216Y-129550740D01*
X109868400Y-129135050D01*
X109868400Y-128685110D01*
X109696216Y-128269420D01*
X109378060Y-127951264D01*
X108962370Y-127779080D01*
X108512430Y-127779080D01*
X108096740Y-127951264D01*
X107778584Y-128269420D01*
X107606400Y-128685110D01*
X107328400Y-128685110D01*
X107156216Y-128269420D01*
X106838060Y-127951264D01*
X106422370Y-127779080D01*
X105972430Y-127779080D01*
X105556740Y-127951264D01*
X105238584Y-128269420D01*
X105066400Y-128685110D01*
X105066400Y-129135050D01*
X105238584Y-129550740D01*
X105556740Y-129868896D01*
X105661400Y-129912248D01*
X105661401Y-130988840D01*
X105428656Y-130988840D01*
X105031343Y-131153412D01*
X104727252Y-131457503D01*
X104562680Y-131854816D01*
X104562680Y-132284864D01*
X104692587Y-132598489D01*
X104385836Y-132598489D01*
X104457240Y-132491625D01*
X104541138Y-132069840D01*
X104457240Y-131648055D01*
X104218318Y-131290482D01*
X103974960Y-131127876D01*
X103974960Y-130048544D01*
X104407400Y-130048544D01*
X104556059Y-130018974D01*
X104682086Y-129934766D01*
X104766294Y-129808739D01*
X104795864Y-129660080D01*
X104795864Y-128160080D01*
X104766294Y-128011421D01*
X104682086Y-127885394D01*
X104556059Y-127801186D01*
X104407400Y-127771616D01*
X102907400Y-127771616D01*
X102889560Y-127775165D01*
X102889560Y-125820067D01*
X102916614Y-125684057D01*
X102889560Y-125548048D01*
X102889560Y-125548044D01*
X102809433Y-125145219D01*
X102739073Y-125039918D01*
X102581250Y-124803719D01*
X102581248Y-124803717D01*
X102504204Y-124688413D01*
X102388901Y-124611370D01*
X99452194Y-121674664D01*
X99375147Y-121559355D01*
X99270617Y-121489510D01*
X101560981Y-121489510D01*
X101696990Y-121516564D01*
X101832999Y-121489510D01*
X102010482Y-121489510D01*
X104692909Y-124171938D01*
X104769955Y-124287245D01*
X105226761Y-124592473D01*
X105629586Y-124672600D01*
X105629590Y-124672600D01*
X105765599Y-124699654D01*
X105901609Y-124672600D01*
X112198892Y-124672600D01*
X117905302Y-130379011D01*
X117905305Y-130379013D01*
X118003367Y-130477075D01*
X118131491Y-130530146D01*
X118246800Y-130607193D01*
X118382815Y-130634248D01*
X118510942Y-130687320D01*
X118649629Y-130687320D01*
X118785640Y-130714374D01*
X118921651Y-130687320D01*
X119060338Y-130687320D01*
X119188466Y-130634247D01*
X119324479Y-130607193D01*
X119439787Y-130530147D01*
X119567913Y-130477075D01*
X119665976Y-130379012D01*
X119781285Y-130301965D01*
X119858332Y-130186656D01*
X119956395Y-130088593D01*
X120009467Y-129960467D01*
X120086513Y-129845159D01*
X120113567Y-129709146D01*
X120166640Y-129581018D01*
X120166640Y-129442331D01*
X120193694Y-129306320D01*
X120166640Y-129170309D01*
X120166640Y-129031622D01*
X120113568Y-128903495D01*
X120086513Y-128767480D01*
X120009466Y-128652171D01*
X119956395Y-128524047D01*
X119858333Y-128425985D01*
X119858331Y-128425982D01*
X119128827Y-127696479D01*
X119146531Y-127700000D01*
X119359469Y-127700000D01*
X119674785Y-127637280D01*
X120032358Y-127398358D01*
X120271280Y-127040785D01*
X120355178Y-126619000D01*
X120298078Y-126331940D01*
X121801736Y-124828282D01*
X121891097Y-124917643D01*
X122325165Y-125097440D01*
X122794995Y-125097440D01*
X123229063Y-124917643D01*
X123561283Y-124585423D01*
X123741080Y-124151355D01*
X123741080Y-123681525D01*
X123561283Y-123247457D01*
X123229063Y-122915237D01*
X122794995Y-122735440D01*
X122325165Y-122735440D01*
X121891097Y-122915237D01*
X121558877Y-123247457D01*
X121379080Y-123681525D01*
X121379080Y-123734901D01*
X119789000Y-125324982D01*
X119789000Y-125183345D01*
X119799500Y-125130560D01*
X119789000Y-125077773D01*
X119757900Y-124921424D01*
X119639434Y-124744126D01*
X119594685Y-124714226D01*
X109502000Y-114621542D01*
X109502000Y-106692141D01*
X109512499Y-106639359D01*
X109502000Y-106586577D01*
X109502000Y-106586573D01*
X109470900Y-106430224D01*
X109469080Y-106427499D01*
X109427051Y-106364599D01*
X109352434Y-106252926D01*
X109307682Y-106223024D01*
X108644640Y-105559982D01*
X108644640Y-105381649D01*
X108525740Y-105094599D01*
X108306041Y-104874900D01*
X108018991Y-104756000D01*
X107708289Y-104756000D01*
X107421239Y-104874900D01*
X107201540Y-105094599D01*
X107189459Y-105123765D01*
X107172000Y-105035991D01*
X107172000Y-104839028D01*
X108141029Y-103870000D01*
X123379972Y-103870000D01*
X123768310Y-104258338D01*
X123768310Y-104258338D01*
G37*
X123768310Y-104258338D02*
X125619001Y-106109030D01*
X125619000Y-108865012D01*
X125572128Y-108935161D01*
X125464946Y-109474000D01*
X125492001Y-109610014D01*
X125492001Y-117301943D01*
X124996000Y-116805942D01*
X124996000Y-109279785D01*
X125006500Y-109226999D01*
X124996000Y-109174213D01*
X124964900Y-109017864D01*
X124846434Y-108840566D01*
X124801682Y-108810664D01*
X124622337Y-108631319D01*
X124622335Y-108631316D01*
X123351260Y-107360241D01*
X123462100Y-107249401D01*
X123581000Y-106962351D01*
X123581000Y-106651649D01*
X123462100Y-106364599D01*
X123242401Y-106144900D01*
X122955351Y-106026000D01*
X122644649Y-106026000D01*
X122357599Y-106144900D01*
X122137900Y-106364599D01*
X122019000Y-106651649D01*
X122019000Y-106962351D01*
X122137900Y-107249401D01*
X122264000Y-107375501D01*
X122264000Y-107514215D01*
X122253500Y-107567000D01*
X122264000Y-107619785D01*
X122264000Y-107619787D01*
X122278080Y-107690567D01*
X122295101Y-107776136D01*
X122383665Y-107908683D01*
X122383667Y-107908685D01*
X122413567Y-107953434D01*
X122458316Y-107983334D01*
X123864316Y-109389335D01*
X123864319Y-109389337D01*
X123924001Y-109449019D01*
X123924000Y-113259981D01*
X120424000Y-109759982D01*
X120424000Y-108858000D01*
X120424351Y-108858000D01*
X120711401Y-108739100D01*
X120931100Y-108519401D01*
X121050000Y-108232351D01*
X121050000Y-107921649D01*
X120931100Y-107634599D01*
X120711401Y-107414900D01*
X120424351Y-107296000D01*
X120113649Y-107296000D01*
X119826599Y-107414900D01*
X119606900Y-107634599D01*
X119488000Y-107921649D01*
X119488000Y-108091869D01*
X119383100Y-108248865D01*
X119352000Y-108405213D01*
X119341500Y-108458000D01*
X119352000Y-108510786D01*
X119352001Y-109929210D01*
X119341500Y-109982000D01*
X119383101Y-110191136D01*
X119471665Y-110323683D01*
X119471667Y-110323685D01*
X119501567Y-110368434D01*
X119546316Y-110398334D01*
X123289000Y-114141019D01*
X123289001Y-117401890D01*
X123278500Y-117454680D01*
X123320101Y-117663816D01*
X123408665Y-117796363D01*
X123408667Y-117796365D01*
X123438567Y-117841114D01*
X123483316Y-117871014D01*
X124373580Y-118761279D01*
X124373580Y-120313561D01*
X123590000Y-119529982D01*
X123590000Y-119351649D01*
X123471100Y-119064599D01*
X123251401Y-118844900D01*
X122964351Y-118726000D01*
X122653649Y-118726000D01*
X122366599Y-118844900D01*
X122146900Y-119064599D01*
X122028000Y-119351649D01*
X122028000Y-119662351D01*
X122146900Y-119949401D01*
X122366599Y-120169100D01*
X122653649Y-120288000D01*
X122831982Y-120288000D01*
X123741121Y-121197140D01*
X123741120Y-129516101D01*
X121667502Y-131589720D01*
X116836796Y-131589720D01*
X116894576Y-131531940D01*
X117066760Y-131116250D01*
X117066760Y-130666310D01*
X116894576Y-130250620D01*
X116576420Y-129932464D01*
X116160730Y-129760280D01*
X115710790Y-129760280D01*
X115295100Y-129932464D01*
X114976944Y-130250620D01*
X114804760Y-130666310D01*
X114804760Y-131116250D01*
X114976944Y-131531940D01*
X115034724Y-131589720D01*
X114852219Y-131589720D01*
X114483409Y-131220910D01*
X114526760Y-131116250D01*
X114526760Y-130666310D01*
X114354576Y-130250620D01*
X114036420Y-129932464D01*
X113620730Y-129760280D01*
X113170790Y-129760280D01*
X112755100Y-129932464D01*
X112436944Y-130250620D01*
X112264760Y-130666310D01*
X112264760Y-131116250D01*
X112436944Y-131531940D01*
X112755100Y-131850096D01*
X113170790Y-132022280D01*
X113620730Y-132022280D01*
X113725390Y-131978929D01*
X114213865Y-132467404D01*
X114243766Y-132512154D01*
X114381224Y-132604000D01*
X110883241Y-132604000D01*
X110855535Y-132598489D01*
X110855530Y-132598489D01*
X110719521Y-132571435D01*
X110583512Y-132598489D01*
X106594773Y-132598489D01*
X106724680Y-132284864D01*
X106724680Y-131854816D01*
X106682987Y-131754160D01*
X106702300Y-131725256D01*
X106733400Y-131568907D01*
X106733400Y-131568903D01*
X106743899Y-131516121D01*
X106733400Y-131463339D01*
X106733400Y-130141280D01*
X109717296Y-130141280D01*
X109717296Y-131641280D01*
X109746866Y-131789939D01*
X109831074Y-131915966D01*
X109957101Y-132000174D01*
X110105760Y-132029744D01*
X111605760Y-132029744D01*
X111754419Y-132000174D01*
X111880446Y-131915966D01*
X111964654Y-131789939D01*
X111994224Y-131641280D01*
X111994224Y-130141280D01*
X111964654Y-129992621D01*
X111880446Y-129866594D01*
X111754419Y-129782386D01*
X111605760Y-129752816D01*
X110105760Y-129752816D01*
X109957101Y-129782386D01*
X109831074Y-129866594D01*
X109746866Y-129992621D01*
X109717296Y-130141280D01*
X106733400Y-130141280D01*
X106733400Y-129912247D01*
X106838060Y-129868896D01*
X107156216Y-129550740D01*
X107328400Y-129135050D01*
X107328400Y-128685110D01*
X107606400Y-128685110D01*
X107606400Y-129135050D01*
X107778584Y-129550740D01*
X108096740Y-129868896D01*
X108512430Y-130041080D01*
X108962370Y-130041080D01*
X109378060Y-129868896D01*
X109696216Y-129550740D01*
X109868400Y-129135050D01*
X109868400Y-128685110D01*
X109696216Y-128269420D01*
X109378060Y-127951264D01*
X108962370Y-127779080D01*
X108512430Y-127779080D01*
X108096740Y-127951264D01*
X107778584Y-128269420D01*
X107606400Y-128685110D01*
X107328400Y-128685110D01*
X107156216Y-128269420D01*
X106838060Y-127951264D01*
X106422370Y-127779080D01*
X105972430Y-127779080D01*
X105556740Y-127951264D01*
X105238584Y-128269420D01*
X105066400Y-128685110D01*
X105066400Y-129135050D01*
X105238584Y-129550740D01*
X105556740Y-129868896D01*
X105661400Y-129912248D01*
X105661401Y-130988840D01*
X105428656Y-130988840D01*
X105031343Y-131153412D01*
X104727252Y-131457503D01*
X104562680Y-131854816D01*
X104562680Y-132284864D01*
X104692587Y-132598489D01*
X104385836Y-132598489D01*
X104457240Y-132491625D01*
X104541138Y-132069840D01*
X104457240Y-131648055D01*
X104218318Y-131290482D01*
X103974960Y-131127876D01*
X103974960Y-130048544D01*
X104407400Y-130048544D01*
X104556059Y-130018974D01*
X104682086Y-129934766D01*
X104766294Y-129808739D01*
X104795864Y-129660080D01*
X104795864Y-128160080D01*
X104766294Y-128011421D01*
X104682086Y-127885394D01*
X104556059Y-127801186D01*
X104407400Y-127771616D01*
X102907400Y-127771616D01*
X102889560Y-127775165D01*
X102889560Y-125820067D01*
X102916614Y-125684057D01*
X102889560Y-125548048D01*
X102889560Y-125548044D01*
X102809433Y-125145219D01*
X102739073Y-125039918D01*
X102581250Y-124803719D01*
X102581248Y-124803717D01*
X102504204Y-124688413D01*
X102388901Y-124611370D01*
X99452194Y-121674664D01*
X99375147Y-121559355D01*
X99270617Y-121489510D01*
X101560981Y-121489510D01*
X101696990Y-121516564D01*
X101832999Y-121489510D01*
X102010482Y-121489510D01*
X104692909Y-124171938D01*
X104769955Y-124287245D01*
X105226761Y-124592473D01*
X105629586Y-124672600D01*
X105629590Y-124672600D01*
X105765599Y-124699654D01*
X105901609Y-124672600D01*
X112198892Y-124672600D01*
X117905302Y-130379011D01*
X117905305Y-130379013D01*
X118003367Y-130477075D01*
X118131491Y-130530146D01*
X118246800Y-130607193D01*
X118382815Y-130634248D01*
X118510942Y-130687320D01*
X118649629Y-130687320D01*
X118785640Y-130714374D01*
X118921651Y-130687320D01*
X119060338Y-130687320D01*
X119188466Y-130634247D01*
X119324479Y-130607193D01*
X119439787Y-130530147D01*
X119567913Y-130477075D01*
X119665976Y-130379012D01*
X119781285Y-130301965D01*
X119858332Y-130186656D01*
X119956395Y-130088593D01*
X120009467Y-129960467D01*
X120086513Y-129845159D01*
X120113567Y-129709146D01*
X120166640Y-129581018D01*
X120166640Y-129442331D01*
X120193694Y-129306320D01*
X120166640Y-129170309D01*
X120166640Y-129031622D01*
X120113568Y-128903495D01*
X120086513Y-128767480D01*
X120009466Y-128652171D01*
X119956395Y-128524047D01*
X119858333Y-128425985D01*
X119858331Y-128425982D01*
X119128827Y-127696479D01*
X119146531Y-127700000D01*
X119359469Y-127700000D01*
X119674785Y-127637280D01*
X120032358Y-127398358D01*
X120271280Y-127040785D01*
X120355178Y-126619000D01*
X120298078Y-126331940D01*
X121801736Y-124828282D01*
X121891097Y-124917643D01*
X122325165Y-125097440D01*
X122794995Y-125097440D01*
X123229063Y-124917643D01*
X123561283Y-124585423D01*
X123741080Y-124151355D01*
X123741080Y-123681525D01*
X123561283Y-123247457D01*
X123229063Y-122915237D01*
X122794995Y-122735440D01*
X122325165Y-122735440D01*
X121891097Y-122915237D01*
X121558877Y-123247457D01*
X121379080Y-123681525D01*
X121379080Y-123734901D01*
X119789000Y-125324982D01*
X119789000Y-125183345D01*
X119799500Y-125130560D01*
X119789000Y-125077773D01*
X119757900Y-124921424D01*
X119639434Y-124744126D01*
X119594685Y-124714226D01*
X109502000Y-114621542D01*
X109502000Y-106692141D01*
X109512499Y-106639359D01*
X109502000Y-106586577D01*
X109502000Y-106586573D01*
X109470900Y-106430224D01*
X109469080Y-106427499D01*
X109427051Y-106364599D01*
X109352434Y-106252926D01*
X109307682Y-106223024D01*
X108644640Y-105559982D01*
X108644640Y-105381649D01*
X108525740Y-105094599D01*
X108306041Y-104874900D01*
X108018991Y-104756000D01*
X107708289Y-104756000D01*
X107421239Y-104874900D01*
X107201540Y-105094599D01*
X107189459Y-105123765D01*
X107172000Y-105035991D01*
X107172000Y-104839028D01*
X108141029Y-103870000D01*
X123379972Y-103870000D01*
X123768310Y-104258338D01*
G36*
X99319000Y-105228719D02*
X99666262Y-106067082D01*
X100307918Y-106708738D01*
X101146281Y-107056000D01*
X101953974Y-107056000D01*
X101742474Y-107267500D01*
X100783514Y-107267500D01*
X100647500Y-107240445D01*
X100511486Y-107267500D01*
X100108661Y-107347627D01*
X99651855Y-107652855D01*
X99346627Y-108109661D01*
X99239445Y-108648500D01*
X99243803Y-108670407D01*
X97260182Y-110654028D01*
X97144875Y-110731074D01*
X96839647Y-111187880D01*
X96759520Y-111590705D01*
X96759520Y-111590709D01*
X96732466Y-111726718D01*
X96759520Y-111862727D01*
X96759520Y-112322734D01*
X96839647Y-112725559D01*
X97144876Y-113182365D01*
X97601682Y-113487593D01*
X98140520Y-113594775D01*
X98679359Y-113487593D01*
X99136165Y-113182365D01*
X99441393Y-112725558D01*
X99521520Y-112322733D01*
X99521520Y-112298746D01*
X101527839Y-110292428D01*
X101643145Y-110215383D01*
X101767348Y-110029500D01*
X102178493Y-110029500D01*
X102314502Y-110056554D01*
X102450511Y-110029500D01*
X102450516Y-110029500D01*
X102853341Y-109949373D01*
X103310147Y-109644145D01*
X103387194Y-109528836D01*
X106671339Y-106244692D01*
X106786645Y-106167647D01*
X106863691Y-106052340D01*
X107090901Y-105712296D01*
X107201540Y-105979401D01*
X107421239Y-106199100D01*
X107708289Y-106318000D01*
X107886622Y-106318000D01*
X108430001Y-106861379D01*
X108430000Y-114790774D01*
X108419500Y-114843560D01*
X108430000Y-114896345D01*
X108430000Y-114896346D01*
X108461100Y-115052695D01*
X108579566Y-115229994D01*
X108624318Y-115259896D01*
X118717001Y-125352580D01*
X118717001Y-125677035D01*
X118473642Y-125839642D01*
X118234720Y-126197215D01*
X118150822Y-126619000D01*
X118175521Y-126743173D01*
X113843612Y-122411264D01*
X113766565Y-122295955D01*
X113309759Y-121990727D01*
X112906934Y-121910600D01*
X112906929Y-121910600D01*
X112770920Y-121883546D01*
X112634911Y-121910600D01*
X106337629Y-121910600D01*
X104088186Y-119661157D01*
X104297872Y-119347340D01*
X104405054Y-118808501D01*
X104297872Y-118269661D01*
X103992645Y-117812855D01*
X103535839Y-117507628D01*
X102996999Y-117400446D01*
X102458160Y-117507628D01*
X102116662Y-117735810D01*
X101124962Y-118727510D01*
X100849304Y-118727510D01*
X100875669Y-118663860D01*
X100875669Y-118353158D01*
X100756769Y-118066108D01*
X100537070Y-117846409D01*
X100250020Y-117727509D01*
X99939318Y-117727509D01*
X99652268Y-117846409D01*
X99535393Y-117963284D01*
X99528983Y-117962009D01*
X99476198Y-117972509D01*
X99476197Y-117972509D01*
X99368150Y-117994001D01*
X99062589Y-117994001D01*
X99188500Y-117690024D01*
X99188500Y-117259976D01*
X99156880Y-117183639D01*
X99223834Y-117116685D01*
X99223836Y-117116682D01*
X102638686Y-113701833D01*
X102683435Y-113671933D01*
X102801901Y-113494635D01*
X102833001Y-113338286D01*
X102833001Y-113338285D01*
X102843501Y-113285500D01*
X102833001Y-113232714D01*
X102833001Y-112258057D01*
X102890531Y-112269500D01*
X103103469Y-112269500D01*
X103418785Y-112206780D01*
X103776358Y-111967858D01*
X104015280Y-111610285D01*
X104099178Y-111188500D01*
X104015280Y-110766715D01*
X103776358Y-110409142D01*
X103418785Y-110170220D01*
X103103469Y-110107500D01*
X102890531Y-110107500D01*
X102575215Y-110170220D01*
X102217642Y-110409142D01*
X101978720Y-110766715D01*
X101894822Y-111188500D01*
X101951724Y-111474565D01*
X101910567Y-111502065D01*
X101792101Y-111679364D01*
X101782682Y-111726718D01*
X101750501Y-111888499D01*
X101761001Y-111941285D01*
X101761002Y-113063479D01*
X98465818Y-116358664D01*
X98465815Y-116358666D01*
X98398861Y-116425620D01*
X98322524Y-116394000D01*
X97892476Y-116394000D01*
X97495163Y-116558572D01*
X97191072Y-116862663D01*
X97026500Y-117259976D01*
X97026500Y-117477482D01*
X96991001Y-117441983D01*
X96991001Y-116949380D01*
X97001500Y-116896598D01*
X96991001Y-116843816D01*
X96991001Y-116843812D01*
X96959901Y-116687463D01*
X96873779Y-116558572D01*
X96871336Y-116554915D01*
X96871335Y-116554914D01*
X96841435Y-116510165D01*
X96796685Y-116480264D01*
X96138070Y-115821650D01*
X96409576Y-115415312D01*
X96505116Y-114935000D01*
X96409576Y-114454688D01*
X96137501Y-114047499D01*
X95730312Y-113775424D01*
X95371239Y-113704000D01*
X95128761Y-113704000D01*
X94769688Y-113775424D01*
X94362499Y-114047499D01*
X94090424Y-114454688D01*
X93994884Y-114935000D01*
X94090424Y-115415312D01*
X94218505Y-115606999D01*
X93741495Y-115606999D01*
X93869576Y-115415312D01*
X93965116Y-114935000D01*
X93869576Y-114454688D01*
X93597501Y-114047499D01*
X93190312Y-113775424D01*
X92831239Y-113704000D01*
X92588761Y-113704000D01*
X92229688Y-113775424D01*
X91822499Y-114047499D01*
X91550424Y-114454688D01*
X91454884Y-114935000D01*
X91550424Y-115415312D01*
X91821930Y-115821649D01*
X91163315Y-116480265D01*
X91118566Y-116510165D01*
X91088666Y-116554914D01*
X91088664Y-116554916D01*
X91000100Y-116687463D01*
X90958499Y-116896599D01*
X90969000Y-116949389D01*
X90968999Y-121297213D01*
X90958499Y-121349999D01*
X90968999Y-121402784D01*
X90968999Y-121402785D01*
X91000099Y-121559134D01*
X91118565Y-121736433D01*
X91163317Y-121766335D01*
X91537358Y-122140376D01*
X91454884Y-122555000D01*
X91550424Y-123035312D01*
X91822499Y-123442501D01*
X92229688Y-123714576D01*
X92400391Y-123748531D01*
X92171160Y-123794128D01*
X91829661Y-124022310D01*
X90762861Y-125089111D01*
X90647555Y-125166156D01*
X90626000Y-125198415D01*
X90626000Y-112395000D01*
X91454884Y-112395000D01*
X91550424Y-112875312D01*
X91822499Y-113282501D01*
X92229688Y-113554576D01*
X92588761Y-113626000D01*
X92831239Y-113626000D01*
X93190312Y-113554576D01*
X93597501Y-113282501D01*
X93869576Y-112875312D01*
X93965116Y-112395000D01*
X93994884Y-112395000D01*
X94090424Y-112875312D01*
X94362499Y-113282501D01*
X94769688Y-113554576D01*
X95128761Y-113626000D01*
X95371239Y-113626000D01*
X95730312Y-113554576D01*
X96137501Y-113282501D01*
X96409576Y-112875312D01*
X96505116Y-112395000D01*
X96409576Y-111914688D01*
X96137501Y-111507499D01*
X95730312Y-111235424D01*
X95371239Y-111164000D01*
X95128761Y-111164000D01*
X94769688Y-111235424D01*
X94362499Y-111507499D01*
X94090424Y-111914688D01*
X93994884Y-112395000D01*
X93965116Y-112395000D01*
X93869576Y-111914688D01*
X93597501Y-111507499D01*
X93190312Y-111235424D01*
X92831239Y-111164000D01*
X92588761Y-111164000D01*
X92229688Y-111235424D01*
X91822499Y-111507499D01*
X91550424Y-111914688D01*
X91454884Y-112395000D01*
X90626000Y-112395000D01*
X90626000Y-109855000D01*
X91454884Y-109855000D01*
X91550424Y-110335312D01*
X91822499Y-110742501D01*
X92229688Y-111014576D01*
X92588761Y-111086000D01*
X92831239Y-111086000D01*
X93190312Y-111014576D01*
X93597501Y-110742501D01*
X93869576Y-110335312D01*
X93965116Y-109855000D01*
X93994884Y-109855000D01*
X94090424Y-110335312D01*
X94362499Y-110742501D01*
X94769688Y-111014576D01*
X95128761Y-111086000D01*
X95371239Y-111086000D01*
X95730312Y-111014576D01*
X96137501Y-110742501D01*
X96409576Y-110335312D01*
X96505116Y-109855000D01*
X96409576Y-109374688D01*
X96137501Y-108967499D01*
X95730312Y-108695424D01*
X95371239Y-108624000D01*
X95128761Y-108624000D01*
X94769688Y-108695424D01*
X94362499Y-108967499D01*
X94090424Y-109374688D01*
X93994884Y-109855000D01*
X93965116Y-109855000D01*
X93869576Y-109374688D01*
X93597501Y-108967499D01*
X93190312Y-108695424D01*
X92831239Y-108624000D01*
X92588761Y-108624000D01*
X92229688Y-108695424D01*
X91822499Y-108967499D01*
X91550424Y-109374688D01*
X91454884Y-109855000D01*
X90626000Y-109855000D01*
X90626000Y-106465000D01*
X91471536Y-106465000D01*
X91471536Y-108165000D01*
X91501106Y-108313659D01*
X91585314Y-108439686D01*
X91711341Y-108523894D01*
X91860000Y-108553464D01*
X93560000Y-108553464D01*
X93708659Y-108523894D01*
X93834686Y-108439686D01*
X93918894Y-108313659D01*
X93948464Y-108165000D01*
X93948464Y-107315000D01*
X93994884Y-107315000D01*
X94090424Y-107795312D01*
X94362499Y-108202501D01*
X94769688Y-108474576D01*
X95128761Y-108546000D01*
X95371239Y-108546000D01*
X95730312Y-108474576D01*
X96137501Y-108202501D01*
X96409576Y-107795312D01*
X96505116Y-107315000D01*
X96409576Y-106834688D01*
X96137501Y-106427499D01*
X95730312Y-106155424D01*
X95371239Y-106084000D01*
X95128761Y-106084000D01*
X94769688Y-106155424D01*
X94362499Y-106427499D01*
X94090424Y-106834688D01*
X93994884Y-107315000D01*
X93948464Y-107315000D01*
X93948464Y-106465000D01*
X93918894Y-106316341D01*
X93834686Y-106190314D01*
X93708659Y-106106106D01*
X93560000Y-106076536D01*
X91860000Y-106076536D01*
X91711341Y-106106106D01*
X91585314Y-106190314D01*
X91501106Y-106316341D01*
X91471536Y-106465000D01*
X90626000Y-106465000D01*
X90626000Y-105231000D01*
X99015091Y-105231000D01*
X99060000Y-105239933D01*
X99104909Y-105231000D01*
X99237922Y-105204542D01*
X99319000Y-105150367D01*
X99319000Y-105228719D01*
X99319000Y-105228719D01*
G37*
X99319000Y-105228719D02*
X99666262Y-106067082D01*
X100307918Y-106708738D01*
X101146281Y-107056000D01*
X101953974Y-107056000D01*
X101742474Y-107267500D01*
X100783514Y-107267500D01*
X100647500Y-107240445D01*
X100511486Y-107267500D01*
X100108661Y-107347627D01*
X99651855Y-107652855D01*
X99346627Y-108109661D01*
X99239445Y-108648500D01*
X99243803Y-108670407D01*
X97260182Y-110654028D01*
X97144875Y-110731074D01*
X96839647Y-111187880D01*
X96759520Y-111590705D01*
X96759520Y-111590709D01*
X96732466Y-111726718D01*
X96759520Y-111862727D01*
X96759520Y-112322734D01*
X96839647Y-112725559D01*
X97144876Y-113182365D01*
X97601682Y-113487593D01*
X98140520Y-113594775D01*
X98679359Y-113487593D01*
X99136165Y-113182365D01*
X99441393Y-112725558D01*
X99521520Y-112322733D01*
X99521520Y-112298746D01*
X101527839Y-110292428D01*
X101643145Y-110215383D01*
X101767348Y-110029500D01*
X102178493Y-110029500D01*
X102314502Y-110056554D01*
X102450511Y-110029500D01*
X102450516Y-110029500D01*
X102853341Y-109949373D01*
X103310147Y-109644145D01*
X103387194Y-109528836D01*
X106671339Y-106244692D01*
X106786645Y-106167647D01*
X106863691Y-106052340D01*
X107090901Y-105712296D01*
X107201540Y-105979401D01*
X107421239Y-106199100D01*
X107708289Y-106318000D01*
X107886622Y-106318000D01*
X108430001Y-106861379D01*
X108430000Y-114790774D01*
X108419500Y-114843560D01*
X108430000Y-114896345D01*
X108430000Y-114896346D01*
X108461100Y-115052695D01*
X108579566Y-115229994D01*
X108624318Y-115259896D01*
X118717001Y-125352580D01*
X118717001Y-125677035D01*
X118473642Y-125839642D01*
X118234720Y-126197215D01*
X118150822Y-126619000D01*
X118175521Y-126743173D01*
X113843612Y-122411264D01*
X113766565Y-122295955D01*
X113309759Y-121990727D01*
X112906934Y-121910600D01*
X112906929Y-121910600D01*
X112770920Y-121883546D01*
X112634911Y-121910600D01*
X106337629Y-121910600D01*
X104088186Y-119661157D01*
X104297872Y-119347340D01*
X104405054Y-118808501D01*
X104297872Y-118269661D01*
X103992645Y-117812855D01*
X103535839Y-117507628D01*
X102996999Y-117400446D01*
X102458160Y-117507628D01*
X102116662Y-117735810D01*
X101124962Y-118727510D01*
X100849304Y-118727510D01*
X100875669Y-118663860D01*
X100875669Y-118353158D01*
X100756769Y-118066108D01*
X100537070Y-117846409D01*
X100250020Y-117727509D01*
X99939318Y-117727509D01*
X99652268Y-117846409D01*
X99535393Y-117963284D01*
X99528983Y-117962009D01*
X99476198Y-117972509D01*
X99476197Y-117972509D01*
X99368150Y-117994001D01*
X99062589Y-117994001D01*
X99188500Y-117690024D01*
X99188500Y-117259976D01*
X99156880Y-117183639D01*
X99223834Y-117116685D01*
X99223836Y-117116682D01*
X102638686Y-113701833D01*
X102683435Y-113671933D01*
X102801901Y-113494635D01*
X102833001Y-113338286D01*
X102833001Y-113338285D01*
X102843501Y-113285500D01*
X102833001Y-113232714D01*
X102833001Y-112258057D01*
X102890531Y-112269500D01*
X103103469Y-112269500D01*
X103418785Y-112206780D01*
X103776358Y-111967858D01*
X104015280Y-111610285D01*
X104099178Y-111188500D01*
X104015280Y-110766715D01*
X103776358Y-110409142D01*
X103418785Y-110170220D01*
X103103469Y-110107500D01*
X102890531Y-110107500D01*
X102575215Y-110170220D01*
X102217642Y-110409142D01*
X101978720Y-110766715D01*
X101894822Y-111188500D01*
X101951724Y-111474565D01*
X101910567Y-111502065D01*
X101792101Y-111679364D01*
X101782682Y-111726718D01*
X101750501Y-111888499D01*
X101761001Y-111941285D01*
X101761002Y-113063479D01*
X98465818Y-116358664D01*
X98465815Y-116358666D01*
X98398861Y-116425620D01*
X98322524Y-116394000D01*
X97892476Y-116394000D01*
X97495163Y-116558572D01*
X97191072Y-116862663D01*
X97026500Y-117259976D01*
X97026500Y-117477482D01*
X96991001Y-117441983D01*
X96991001Y-116949380D01*
X97001500Y-116896598D01*
X96991001Y-116843816D01*
X96991001Y-116843812D01*
X96959901Y-116687463D01*
X96873779Y-116558572D01*
X96871336Y-116554915D01*
X96871335Y-116554914D01*
X96841435Y-116510165D01*
X96796685Y-116480264D01*
X96138070Y-115821650D01*
X96409576Y-115415312D01*
X96505116Y-114935000D01*
X96409576Y-114454688D01*
X96137501Y-114047499D01*
X95730312Y-113775424D01*
X95371239Y-113704000D01*
X95128761Y-113704000D01*
X94769688Y-113775424D01*
X94362499Y-114047499D01*
X94090424Y-114454688D01*
X93994884Y-114935000D01*
X94090424Y-115415312D01*
X94218505Y-115606999D01*
X93741495Y-115606999D01*
X93869576Y-115415312D01*
X93965116Y-114935000D01*
X93869576Y-114454688D01*
X93597501Y-114047499D01*
X93190312Y-113775424D01*
X92831239Y-113704000D01*
X92588761Y-113704000D01*
X92229688Y-113775424D01*
X91822499Y-114047499D01*
X91550424Y-114454688D01*
X91454884Y-114935000D01*
X91550424Y-115415312D01*
X91821930Y-115821649D01*
X91163315Y-116480265D01*
X91118566Y-116510165D01*
X91088666Y-116554914D01*
X91088664Y-116554916D01*
X91000100Y-116687463D01*
X90958499Y-116896599D01*
X90969000Y-116949389D01*
X90968999Y-121297213D01*
X90958499Y-121349999D01*
X90968999Y-121402784D01*
X90968999Y-121402785D01*
X91000099Y-121559134D01*
X91118565Y-121736433D01*
X91163317Y-121766335D01*
X91537358Y-122140376D01*
X91454884Y-122555000D01*
X91550424Y-123035312D01*
X91822499Y-123442501D01*
X92229688Y-123714576D01*
X92400391Y-123748531D01*
X92171160Y-123794128D01*
X91829661Y-124022310D01*
X90762861Y-125089111D01*
X90647555Y-125166156D01*
X90626000Y-125198415D01*
X90626000Y-112395000D01*
X91454884Y-112395000D01*
X91550424Y-112875312D01*
X91822499Y-113282501D01*
X92229688Y-113554576D01*
X92588761Y-113626000D01*
X92831239Y-113626000D01*
X93190312Y-113554576D01*
X93597501Y-113282501D01*
X93869576Y-112875312D01*
X93965116Y-112395000D01*
X93994884Y-112395000D01*
X94090424Y-112875312D01*
X94362499Y-113282501D01*
X94769688Y-113554576D01*
X95128761Y-113626000D01*
X95371239Y-113626000D01*
X95730312Y-113554576D01*
X96137501Y-113282501D01*
X96409576Y-112875312D01*
X96505116Y-112395000D01*
X96409576Y-111914688D01*
X96137501Y-111507499D01*
X95730312Y-111235424D01*
X95371239Y-111164000D01*
X95128761Y-111164000D01*
X94769688Y-111235424D01*
X94362499Y-111507499D01*
X94090424Y-111914688D01*
X93994884Y-112395000D01*
X93965116Y-112395000D01*
X93869576Y-111914688D01*
X93597501Y-111507499D01*
X93190312Y-111235424D01*
X92831239Y-111164000D01*
X92588761Y-111164000D01*
X92229688Y-111235424D01*
X91822499Y-111507499D01*
X91550424Y-111914688D01*
X91454884Y-112395000D01*
X90626000Y-112395000D01*
X90626000Y-109855000D01*
X91454884Y-109855000D01*
X91550424Y-110335312D01*
X91822499Y-110742501D01*
X92229688Y-111014576D01*
X92588761Y-111086000D01*
X92831239Y-111086000D01*
X93190312Y-111014576D01*
X93597501Y-110742501D01*
X93869576Y-110335312D01*
X93965116Y-109855000D01*
X93994884Y-109855000D01*
X94090424Y-110335312D01*
X94362499Y-110742501D01*
X94769688Y-111014576D01*
X95128761Y-111086000D01*
X95371239Y-111086000D01*
X95730312Y-111014576D01*
X96137501Y-110742501D01*
X96409576Y-110335312D01*
X96505116Y-109855000D01*
X96409576Y-109374688D01*
X96137501Y-108967499D01*
X95730312Y-108695424D01*
X95371239Y-108624000D01*
X95128761Y-108624000D01*
X94769688Y-108695424D01*
X94362499Y-108967499D01*
X94090424Y-109374688D01*
X93994884Y-109855000D01*
X93965116Y-109855000D01*
X93869576Y-109374688D01*
X93597501Y-108967499D01*
X93190312Y-108695424D01*
X92831239Y-108624000D01*
X92588761Y-108624000D01*
X92229688Y-108695424D01*
X91822499Y-108967499D01*
X91550424Y-109374688D01*
X91454884Y-109855000D01*
X90626000Y-109855000D01*
X90626000Y-106465000D01*
X91471536Y-106465000D01*
X91471536Y-108165000D01*
X91501106Y-108313659D01*
X91585314Y-108439686D01*
X91711341Y-108523894D01*
X91860000Y-108553464D01*
X93560000Y-108553464D01*
X93708659Y-108523894D01*
X93834686Y-108439686D01*
X93918894Y-108313659D01*
X93948464Y-108165000D01*
X93948464Y-107315000D01*
X93994884Y-107315000D01*
X94090424Y-107795312D01*
X94362499Y-108202501D01*
X94769688Y-108474576D01*
X95128761Y-108546000D01*
X95371239Y-108546000D01*
X95730312Y-108474576D01*
X96137501Y-108202501D01*
X96409576Y-107795312D01*
X96505116Y-107315000D01*
X96409576Y-106834688D01*
X96137501Y-106427499D01*
X95730312Y-106155424D01*
X95371239Y-106084000D01*
X95128761Y-106084000D01*
X94769688Y-106155424D01*
X94362499Y-106427499D01*
X94090424Y-106834688D01*
X93994884Y-107315000D01*
X93948464Y-107315000D01*
X93948464Y-106465000D01*
X93918894Y-106316341D01*
X93834686Y-106190314D01*
X93708659Y-106106106D01*
X93560000Y-106076536D01*
X91860000Y-106076536D01*
X91711341Y-106106106D01*
X91585314Y-106190314D01*
X91501106Y-106316341D01*
X91471536Y-106465000D01*
X90626000Y-106465000D01*
X90626000Y-105231000D01*
X99015091Y-105231000D01*
X99060000Y-105239933D01*
X99104909Y-105231000D01*
X99237922Y-105204542D01*
X99319000Y-105150367D01*
X99319000Y-105228719D01*
G04 #@! TD*
M02*
