M48
;DRILL file {KiCad (5.0.2)-1} date 04.10.2019 12:41:32
;FORMAT={-:-/ absolute / metric / decimal}
FMAT,2
METRIC,TZ
T1C0.400
T2C0.500
T3C0.700
T4C0.750
T5C0.800
T6C0.900
T7C1.000
T8C2.200
%
G90
G05
T1
X99.299Y-128.265
X100.095Y-118.509
X105.791Y-104.267
X106.337Y-135.611
X107.777Y-107.554
X107.864Y-105.537
X108.585Y-120.523
X109.952Y-135.579
X113.553Y-104.612
X116.84Y-114.173
X120.142Y-105.918
X120.269Y-108.077
X122.8Y-106.807
X122.809Y-119.507
X127.Y-105.537
X130.759Y-97.693
X143.667Y-138.105
X146.923Y-142.433
X146.939Y-144.399
T2
X86.589Y-143.497
X91.643Y-143.497
X94.17Y-143.51
T3
X126.873Y-108.585
X134.493Y-108.585
X130.238Y-101.282
X137.858Y-101.282
X103.439Y-132.07
X103.439Y-139.69
X119.253Y-126.619
X126.873Y-126.619
X105.644Y-132.07
X105.644Y-139.69
X98.108Y-117.475
X98.108Y-125.095
X126.873Y-112.268
X134.493Y-112.268
X102.997Y-111.188
X102.997Y-118.808
X148.915Y-128.016
X156.535Y-128.016
X148.89Y-130.52
X156.51Y-130.52
T4
X156.19Y-134.89
X156.19Y-136.89
T5
X120.06Y-123.916
X122.56Y-123.916
X130.874Y-104.331
X133.374Y-104.331
X103.657Y-128.91
X106.197Y-128.91
X108.737Y-128.91
X135.895Y-133.609
X138.395Y-133.609
X98.141Y-112.187
X100.641Y-112.187
X98.147Y-108.648
X100.647Y-108.648
X131.221Y-125.785
X131.221Y-128.285
X110.856Y-130.891
X113.396Y-130.891
X115.936Y-130.891
X155.905Y-141.152
X155.905Y-143.652
T6
X135.799Y-97.836
X138.339Y-97.836
X158.814Y-128.016
X161.353Y-128.016
X129.686Y-96.841
X133.936Y-96.841
T7
X91.643Y-136.55
X94.767Y-133.972
X118.786Y-129.306
X123.444Y-133.985
X129.54Y-131.318
X92.71Y-107.315
X92.71Y-109.855
X92.71Y-112.395
X92.71Y-114.935
X92.71Y-117.475
X92.71Y-120.015
X92.71Y-122.555
X92.71Y-125.095
X95.25Y-107.315
X95.25Y-109.855
X95.25Y-112.395
X95.25Y-114.935
X95.25Y-117.475
X95.25Y-120.015
X95.25Y-122.555
X95.25Y-125.095
X143.51Y-107.315
X143.51Y-109.855
X143.51Y-112.395
X143.51Y-114.935
X143.51Y-117.475
X143.51Y-120.015
X143.51Y-122.555
X143.51Y-125.095
X146.05Y-107.315
X146.05Y-109.855
X146.05Y-112.395
X146.05Y-114.935
X146.05Y-117.475
X146.05Y-120.015
X146.05Y-122.555
X146.05Y-125.095
T8
X137.16Y-104.775
X101.6Y-104.775
X119.38Y-143.51
X113.228Y-110.526
T0
M30
