G04 #@! TF.GenerationSoftware,KiCad,Pcbnew,(5.0.2)-1*
G04 #@! TF.CreationDate,2019-10-04T12:41:36+03:00*
G04 #@! TF.ProjectId,esp32d-diy,65737033-3264-42d6-9469-792e6b696361,1.0*
G04 #@! TF.SameCoordinates,Original*
G04 #@! TF.FileFunction,Paste,Top*
G04 #@! TF.FilePolarity,Positive*
%FSLAX46Y46*%
G04 Gerber Fmt 4.6, Leading zero omitted, Abs format (unit mm)*
G04 Created by KiCad (PCBNEW (5.0.2)-1) date 04.10.2019 12:41:36*
%MOMM*%
%LPD*%
G01*
G04 APERTURE LIST*
%ADD10R,5.000000X5.000000*%
%ADD11R,2.000000X0.900000*%
%ADD12R,0.900000X2.000000*%
%ADD13R,1.524000X3.000000*%
%ADD14R,1.560000X0.650000*%
%ADD15R,2.000000X0.700000*%
%ADD16R,4.000000X3.800000*%
%ADD17R,4.000000X1.500000*%
%ADD18R,0.750000X2.800000*%
%ADD19R,1.900000X1.600000*%
G04 APERTURE END LIST*
D10*
G04 #@! TO.C,U2*
X113300000Y-110497000D03*
D11*
X105800000Y-102997000D03*
X105800000Y-104267000D03*
X105800000Y-105537000D03*
X105800000Y-106807000D03*
X105800000Y-108077000D03*
X105800000Y-109347000D03*
X105800000Y-110617000D03*
X105800000Y-111887000D03*
X105800000Y-113157000D03*
X105800000Y-114427000D03*
X105800000Y-115697000D03*
X105800000Y-116967000D03*
X105800000Y-118237000D03*
X105800000Y-119507000D03*
D12*
X108585000Y-120507000D03*
X109855000Y-120507000D03*
X111125000Y-120507000D03*
X112395000Y-120507000D03*
X113665000Y-120507000D03*
X114935000Y-120507000D03*
X116205000Y-120507000D03*
X117475000Y-120507000D03*
X118745000Y-120507000D03*
X120015000Y-120507000D03*
D11*
X122800000Y-119507000D03*
X122800000Y-118237000D03*
X122800000Y-116967000D03*
X122800000Y-115697000D03*
X122800000Y-114427000D03*
X122800000Y-113157000D03*
X122800000Y-111887000D03*
X122800000Y-110617000D03*
X122800000Y-109347000D03*
X122800000Y-108077000D03*
X122800000Y-106807000D03*
X122800000Y-105537000D03*
X122800000Y-104267000D03*
X122800000Y-102997000D03*
G04 #@! TD*
D13*
G04 #@! TO.C,U6*
X99237800Y-128270000D03*
X96697800Y-128270000D03*
X94157800Y-128270000D03*
X91617800Y-128270000D03*
X89077800Y-128270000D03*
X86537800Y-128270000D03*
X83997800Y-128270000D03*
X81457800Y-128270000D03*
X78917800Y-128270000D03*
X78917800Y-143510000D03*
X81457800Y-143510000D03*
X86537800Y-143510000D03*
X83997800Y-143510000D03*
X89077800Y-143510000D03*
X91617800Y-143510000D03*
X94157800Y-143510000D03*
X96697800Y-143510000D03*
X99237800Y-143510000D03*
G04 #@! TD*
D14*
G04 #@! TO.C,U4*
X143689080Y-134167840D03*
X143689080Y-135117840D03*
X143689080Y-136067840D03*
X146389080Y-136067840D03*
X146389080Y-134167840D03*
G04 #@! TD*
D15*
G04 #@! TO.C,Q3*
X147597600Y-144343160D03*
X147597600Y-142443160D03*
X144197600Y-143393160D03*
G04 #@! TD*
D16*
G04 #@! TO.C,U1*
X122342000Y-133604000D03*
D17*
X130642000Y-133604000D03*
X130642000Y-131304000D03*
X130642000Y-135904000D03*
G04 #@! TD*
D18*
G04 #@! TO.C,SW1*
X130510760Y-98241160D03*
X131810760Y-98241160D03*
D19*
X133850760Y-95531160D03*
X129760760Y-95531160D03*
D18*
X133110760Y-98241160D03*
G04 #@! TD*
M02*
